<svg xmlns="http://www.w3.org/2000/svg" viewBox="0 0 175.71 162.55"><defs><style>.cls-1{fill:#3f3f3f;}.cls-2{font-size:11.51px;fill:#fff;font-family:Rockwell-ExtraBold, Rockwell Extra;font-weight:800;}.cls-3{letter-spacing:-0.02em;}.cls-4{letter-spacing:-0.03em;}</style></defs><title>Ativo 3</title><g id="Camada_2" data-name="Camada 2"><g id="Layer_1" data-name="Layer 1"><path class="cls-1" d="M65.22,84.83l-.47-.14-1-.35v-.8h0l-.65,1.28Z"/><path class="cls-1" d="M125.63,83.22l.82,1.61h15.84l-1.65-2.18c-.77.46-2.91,1.28-8.3,1.28A26.19,26.19,0,0,1,125.63,83.22Z"/><path class="cls-1" d="M124.53,84.83l-.23.22c-.63.62-2.81,1.66-10.39,1.66-1,0-2,0-2.84,0l.86,3.39h17.16l-2.64-5.22Z"/><path class="cls-1" d="M94,88c-6,0-9.82-.58-10.84-1.63l-.41-.42v-.47a41.07,41.07,0,0,1-4.09.47l-1,4.13H94.76V88Z"/><polygon class="cls-1" points="47.23 84.83 43.26 90.05 60.43 90.05 63.07 84.83 47.23 84.83"/><path class="cls-1" d="M85.47,97.07h-.18a.5.5,0,0,0-.29.06.28.28,0,0,0-.1.2l-.09.68a.24.24,0,0,0,0,.21.43.43,0,0,0,.28.07.51.51,0,0,0,.29-.07.32.32,0,0,0,.11-.23l.08-.66C85.64,97.18,85.59,97.1,85.47,97.07Z"/><path class="cls-1" d="M104.59,97.16a.26.26,0,0,0-.09-.19.41.41,0,0,0-.26-.06h0c-.23,0-.34.06-.34.17v.09l0,.2h.68Z"/><path class="cls-1" d="M47.18,98l.42-.67q.12-.19,0-.24h-.16a.76.76,0,0,0-.33,0,.47.47,0,0,0-.22.2l-.43.68c-.07.1-.09.17-.06.22s.1.07.25.07a.66.66,0,0,0,.32-.07A.68.68,0,0,0,47.18,98Z"/><path class="cls-1" d="M142.47,97a.47.47,0,0,0-.19-.18.75.75,0,0,0-.33-.06c-.13,0-.21,0-.22.07s0,.09,0,.17l.34.54a.76.76,0,0,0,.2.2.73.73,0,0,0,.32.06q.19,0,.24-.06s0-.11-.06-.21Z"/><path class="cls-1" d="M95.67,108.86v2.51h2L99,110.21v1.14l.86.79-.86.78v1.15l-1.28-1.16h-2v1.92l-.93.84,36.58-.24c1.77-2.17,3.46-4.39,5.09-6.67l-11.06,0Z"/><path class="cls-1" d="M93.68,114.83v-1.92h-2l-1.28,1.16v-1.15l-.86-.78.86-.79v-1.14l1.28,1.16h2v-2.51l-29.52,0-11,0q2.63,3.67,5.49,7.16l36-.24Z"/><path class="cls-1" d="M146.26,90.05h1.45c.86-1.72,1.69-3.47,2.48-5.22h-7.9Z"/><path class="cls-1" d="M140.17,76.47a2.59,2.59,0,0,1,1.26,2.18v1.7H152.1c.53-1.29,1-2.58,1.52-3.88H140.17Z"/><path class="cls-1" d="M123.22,77h.66a3.44,3.44,0,0,1,.64-.57h-1.89C122.83,76.65,123,76.84,123.22,77Z"/><path class="cls-1" d="M49.81,77a3.44,3.44,0,0,1,.64-.57H35.9c.16.45.33.9.5,1.34h.12l-.08.08c.18.47.36.94.55,1.41L39.27,77Z"/><path class="cls-1" d="M104.6,77l.59-.57H102.3a4.85,4.85,0,0,1-.09.57Z"/><path class="cls-1" d="M49.23,82.19l0,0V80.35H37.41c.62,1.5,1.26,3,1.92,4.48h7.9Z"/><path class="cls-1" d="M85.67,76.47h-.39c.14.1.28.21.43.34C85.69,76.7,85.68,76.59,85.67,76.47Z"/><path class="cls-1" d="M124.2,100.26l-14.53,0h-30l-14.53,0-13.58-.07-4.15,0q2.52,4.13,5.3,8.06l11.44,0,29.52,0v-2.51h-2l-1.28,1.16v-1.14l-.86-.79.86-.79v-1.14l1.28,1.16h2v-1.92l1-.91,1,.91v1.92h2L99,102.91v1.14l.86.79-.86.79v1.14l-1.28-1.16h-2v2.51l29.68,0,11.45,0q2.79-3.93,5.3-8.06l-4.32,0Z"/><path class="cls-1" d="M129.09,90.05l3.13,6.18H113.49l-1.56-6.18H94.76v6.18H76l1.56-6.18H60.43L57.3,96.23H45.1l.61,1.08.16.26.67-1h.84l-.27.41a1.41,1.41,0,0,1,.31-.1,2.71,2.71,0,0,1,.4,0c.41,0,.64.07.69.19a.3.3,0,0,1-.06.3L48,98h0a1.08,1.08,0,0,1-.76.46,2.9,2.9,0,0,1-.43,0h0a1.08,1.08,0,0,1-.4-.05c.2.34.4.68.61,1l4.55,0,13.58-.07,14.53,0h30l14.53,0,13.58.07,4.72,0,.6-1h-.17a5.32,5.32,0,0,1-1.23-.12l.18-.19a3.89,3.89,0,0,0,.78.09,1,1,0,0,0,.43-.06.1.1,0,0,0,0-.16l-.09-.13s-.07.09-.17.11a2.15,2.15,0,0,1-.41,0,1.83,1.83,0,0,1-.78-.13.93.93,0,0,1-.41-.34l-.32-.53c-.21-.32,0-.49.6-.49h0a1.29,1.29,0,0,1,.73.17l-.09-.15H143l.63,1c0-.09.1-.17.14-.25q1.74-3,3.33-6.11l-.87-1.15Zm-61.6,7.1-.07.18H66.6l.07-.19q.06-.15,0-.18a.51.51,0,0,0-.25,0,.72.72,0,0,0-.29,0,.37.37,0,0,0-.14.18l-.29.74c0,.08,0,.14,0,.18s.12.06.26.06a.44.44,0,0,0,.38-.14l0-.08v0l.08-.2h.82l-.06.17a.68.68,0,0,1-.4.38,2.48,2.48,0,0,1-.93.13,1.79,1.79,0,0,1-.93-.15.33.33,0,0,1-.09-.43l.21-.53a.79.79,0,0,1,.55-.48,3.52,3.52,0,0,1,.91-.1,1.9,1.9,0,0,1,.81.12A.26.26,0,0,1,67.49,97.15ZM86.34,98.5h-.87l0-.16a1.12,1.12,0,0,1-.72.17,1.71,1.71,0,0,1-.58-.07.37.37,0,0,1-.22-.2A.62.62,0,0,1,84,98l.1-.67a.47.47,0,0,1,.27-.34,1.66,1.66,0,0,1,.74-.13,2,2,0,0,1,.36,0,.83.83,0,0,1,.24.08l0-.39h.84Zm19.12-.37a.48.48,0,0,1-.22.15,2.87,2.87,0,0,1-.84.09,1.92,1.92,0,0,1-1.09-.21.58.58,0,0,1-.19-.36l-.07-.62c0-.33.36-.5,1.17-.5a2.17,2.17,0,0,1,.91.14.5.5,0,0,1,.31.37l0,.35H104l0,.32c0,.12.05.19.12.22a.48.48,0,0,0,.26,0,.53.53,0,0,0,.23,0c.05,0,.08-.06.08-.1a.32.32,0,0,0,0-.14l0-.14h.84l0,.09A.38.38,0,0,1,105.46,98.13Zm17.77.38-.51-1.38h-.38l-.07-.21h.37l0-.08c0-.09,0-.16.13-.21a1.38,1.38,0,0,1,.52-.08,4.45,4.45,0,0,1,.57,0l.07.18h-.22c-.18,0-.25,0-.23.1l0,.07H124l.08.21h-.49l.53,1.38Z"/><path class="cls-1" d="M41.81,90.05c.19.38.38.77.58,1.15l.87-1.15Z"/><polygon class="cls-1" points="97.7 105.07 97.95 105.07 98.12 105.23 98.38 105.47 98.38 105.41 98.56 105.25 99 104.84 98.56 104.44 98.38 104.28 98.38 104.22 98.12 104.45 97.95 104.61 97.7 104.61 95.67 104.61 95.08 104.61 95.08 104.07 95.08 102.37 94.67 102.01 94.28 102.37 94.28 104.07 94.28 104.61 93.68 104.61 91.65 104.61 91.4 104.61 91.23 104.45 90.97 104.22 90.97 104.28 90.79 104.44 90.35 104.84 90.79 105.25 90.97 105.41 90.97 105.47 91.23 105.23 91.4 105.07 91.65 105.07 93.68 105.07 94.28 105.07 94.28 105.61 94.28 108.49 94.28 111.37 94.28 111.91 93.68 111.91 91.65 111.91 91.4 111.91 91.23 111.75 90.97 111.51 90.97 111.57 90.79 111.73 90.35 112.14 90.79 112.54 90.97 112.7 90.97 112.76 91.23 112.52 91.4 112.37 91.65 112.37 93.68 112.37 94.28 112.37 94.28 112.91 94.28 114.61 94.67 114.97 95.08 114.61 95.08 112.91 95.08 112.37 95.67 112.37 97.7 112.37 97.95 112.37 98.12 112.52 98.38 112.76 98.38 112.7 98.56 112.54 99 112.14 98.56 111.73 98.38 111.57 98.38 111.51 98.12 111.75 97.95 111.91 97.7 111.91 95.67 111.91 95.08 111.91 95.08 111.37 95.08 108.49 95.08 105.61 95.08 105.07 95.67 105.07 97.7 105.07"/><path class="cls-1" d="M41,74.93a2.79,2.79,0,0,0-.74,1.92V81l0,0,.72.45c.27.17,2.82,1.63,10.07,1.63a37.9,37.9,0,0,0,6.5-.46h0v.94l1.21.42.56.17a46,46,0,0,0,12.16,1.42c1.39,0,2.68,0,3.86-.12A47.36,47.36,0,0,0,80.29,85v.57l.49.5C82,87.28,86.6,88,93.73,88h.92c6.59-.06,10.85-.74,12-1.94l.49-.5v0a29.38,29.38,0,0,0,7,.91c1,0,2.14.07,3.4.07,9,0,11.65-1.24,12.39-2l.28-.27.25-.25V82a9.38,9.38,0,0,0,1.07.33,31,31,0,0,0,8,.85c6.43,0,9-1,9.9-1.52l.35-.24.59-.5v-4a3.08,3.08,0,0,0-1.51-2.6,9,9,0,0,0-1.1-.65c-.17-.09-.4-.2-.56-.3V71.57A2.58,2.58,0,0,0,144.63,69a2.09,2.09,0,0,1-.62-1.66,11.66,11.66,0,0,1,.14-1.91c1.63-.36,3-1.34,3-3A2.65,2.65,0,0,0,145.48,60a6.6,6.6,0,0,0,1.09-3.73,5.57,5.57,0,0,0-2.09-4.69,9.7,9.7,0,0,0-9.94,0,5.54,5.54,0,0,0-2.1,4.69,6.5,6.5,0,0,0,1.1,3.73,2.68,2.68,0,0,0-1.67,2.45c0,1.7,1.37,2.68,3,3a10.63,10.63,0,0,1,.14,1.91,2.13,2.13,0,0,1-.61,1.66,2.59,2.59,0,0,0-2.56,2.56V73.3c-.16.1-.39.21-.56.3a9.77,9.77,0,0,0-1.1.65,4.08,4.08,0,0,0-.77.68,2.9,2.9,0,0,0-.35.49c-.14-.17-.28-.34-.43-.49a7.49,7.49,0,0,0-.71-.68c-.3-.27-.6-.51-.87-.71a4.44,4.44,0,0,0,.77-2.3v-.76l-.37-.33c-.15-.31-.88-2-.88-6.34A12.6,12.6,0,0,1,128.09,58a17.76,17.76,0,0,0,2-8.21c0-6.49-6.82-9.22-10.43-9.76l-1.11-.16-.62.93-1.53,2.31a17.07,17.07,0,0,1-5.14,1c-4.82,0-5.19,3.29-5.19,4.31a13.55,13.55,0,0,0,.07,1.74l.2,1.49h0l1.85,1.72a3.16,3.16,0,0,1,.36.79,2.06,2.06,0,0,0,2,1.41,6.82,6.82,0,0,0,2.34-.65,13.61,13.61,0,0,1,1.79-.62c-.24,1.34-2.43,3.63-4,5.32-2.47,2.59-4.6,4.82-4.6,7.15a9.31,9.31,0,0,0,1.21,5.14,5,5,0,0,0,.69,1.61c-.27.2-.57.44-.87.71a7.49,7.49,0,0,0-.71.68A7,7,0,0,0,105,77l-.39-.18a7.4,7.4,0,0,1-1-.52,2.28,2.28,0,0,1-.45-.38,3.83,3.83,0,0,0,.42-1,4.6,4.6,0,0,0,.11-.68c0-.13,0-.25,0-.38a2.92,2.92,0,0,0-2.14-2.82,34.13,34.13,0,0,1-2.12-10.14A21.31,21.31,0,0,1,100,55.4a3.39,3.39,0,0,0,3.16-3.5,3.29,3.29,0,0,0-1.5-2.79,3.46,3.46,0,0,0-1.42-1.91,8.69,8.69,0,0,1-.29-2.52,11.72,11.72,0,0,1,1.29-4.86l1.35-2.53H98.65a5,5,0,0,0-1.73-1.44c0-.12,0-.25,0-.39a3.22,3.22,0,0,0-6.42,0c0,.14,0,.27,0,.39a5.14,5.14,0,0,0-1.73,1.44H84.86l1.37,2.53a12,12,0,0,1,1.28,4.86,9.23,9.23,0,0,1-.28,2.52,3.37,3.37,0,0,0-1.42,1.91A3.27,3.27,0,0,0,84.3,51.9a3.39,3.39,0,0,0,3.17,3.5,21.31,21.31,0,0,1,.58,5.51,34.06,34.06,0,0,1-2.12,10.14l-.36.13a2.86,2.86,0,0,0-1.79,2.69c0,.13,0,.25,0,.38s0,.27,0,.4c-.17-.15-.35-.28-.51-.4L82.93,74c-.19-.13-.46-.31-.61-.44a15.19,15.19,0,0,0-.22-2.74,3.68,3.68,0,0,0-1.37-2.44,21,21,0,0,1-1-7,57.74,57.74,0,0,1,.35-7.69l0-.14v-.44a2.55,2.55,0,0,0,1.63-2.26,2.61,2.61,0,0,0-.57-1.67V46.28c0-.78-.3-2.6-3.16-2.6H65.12c-2.86,0-3.17,1.82-3.17,2.6v2.85a2.6,2.6,0,0,0-.56,1.67A2.54,2.54,0,0,0,63,53.06v.44l0,.14a57.74,57.74,0,0,1,.35,7.69,20.69,20.69,0,0,1-1,7A3.68,3.68,0,0,0,61,70.79a15.19,15.19,0,0,0-.22,2.74c-.15.13-.42.31-.61.44l-.09,0c-.27-.16-.53-.3-.76-.42s-.4-.2-.56-.3V71.57A2.59,2.59,0,0,0,56.23,69a2.13,2.13,0,0,1-.61-1.66,10.63,10.63,0,0,1,.14-1.91c1.62-.36,3-1.34,3-3A2.67,2.67,0,0,0,57.09,60a6.6,6.6,0,0,0,1.09-3.73,5.54,5.54,0,0,0-2.1-4.69,8,8,0,0,0-5-1.37,8,8,0,0,0-5,1.37,5.57,5.57,0,0,0-2.09,4.69A6.57,6.57,0,0,0,45.14,60a2.69,2.69,0,0,0-1.66,2.45c0,1.7,1.36,2.68,3,3a11.66,11.66,0,0,1,.14,1.91A2.09,2.09,0,0,1,46,69a2.58,2.58,0,0,0-2.55,2.56V73.3c-.16.1-.39.21-.56.3a9,9,0,0,0-1.1.65A3.8,3.8,0,0,0,41,74.93Zm84.3,9.43c-.53.09-1.1.18-1.71.25s-1.25.14-1.92.17-1.35.08-2.05.1-1.41,0-2.12,0-1.42,0-2.12,0-1.39,0-2.06-.1-1.3-.1-1.91-.17-1.18-.16-1.71-.25l-.75-.15-.68-.16c-.41-.12-.78-.24-1.07-.35l-.15-.07a6.23,6.23,0,0,0-.32-1.16,4.25,4.25,0,0,0,.42-1.41l.54.07c.58.08,1.41.18,2.41.28,2,.22,4.66.44,7.34.55,2.31.09,4.62.11,6.5.08v2.21c.46,0,.91-.08,1.32-.14s1-.14,1.43-.22.78-.18,1.08-.27a5.27,5.27,0,0,0,.67-.26,1.12,1.12,0,0,0,.21-.13,1.31,1.31,0,0,1-.2.15,3.92,3.92,0,0,1-.65.32c-.3.11-.66.23-1.08.35l-.67.16Zm2-9.11a6.82,6.82,0,0,1,1.15,1.18,4.35,4.35,0,0,1,.83,1.73,4.15,4.15,0,0,1,.07,1c0,.31,0,.61,0,.91,0,.59,0,1.14-.07,1.61s-.06.86-.08,1.14-.05.43-.05.43,0-.16,0-.43-.05-.67-.08-1.14,0-1-.07-1.61c0-.3,0-.6,0-.91a3.65,3.65,0,0,0-.07-.89,4.33,4.33,0,0,0-.72-1.59,9.34,9.34,0,0,0-1-1.22c-.33-.34-.61-.61-.82-.79l-.32-.29A7.52,7.52,0,0,1,127.27,75.25ZM146,73.76a.76.76,0,0,0,.09.23,1.23,1.23,0,0,0,.24.29,3.65,3.65,0,0,0,.41.27c.32.17.72.34,1.14.55a4.78,4.78,0,0,1,.65.38,2.24,2.24,0,0,1,.58.57,1.28,1.28,0,0,1,.18.41,1.76,1.76,0,0,1,.06.41c0,.24,0,.48,0,.72,0,.47,0,.9-.06,1.28s-.06.68-.08.9,0,.35,0,.35,0-.13,0-.35-.06-.53-.08-.9-.05-.81-.06-1.28c0-.24,0-.48,0-.72a2,2,0,0,0,0-.33,1.1,1.1,0,0,0-.14-.26,1.91,1.91,0,0,0-.46-.48l-.59-.38a11.8,11.8,0,0,1-1.1-.67l-.22-.18-.17-.18A1.36,1.36,0,0,1,146,74a.66.66,0,0,1,0-.25v-.09ZM144.35,70a1.31,1.31,0,0,1-.24-.09,2.39,2.39,0,0,1-.57-.42,2.82,2.82,0,0,1-.57-.84,3.5,3.5,0,0,1-.17-.55,5.6,5.6,0,0,1-.07-.59,8.4,8.4,0,0,1,.05-1.13,6,6,0,0,1,.19-1,3.5,3.5,0,0,1,.24-.65,2,2,0,0,1,.14-.23,2,2,0,0,0-.06.26c0,.16-.06.39-.09.66s0,.6-.06,1V67c0,.19,0,.38,0,.55a4.53,4.53,0,0,0,.05.53l.06.26.07.24a2.53,2.53,0,0,0,.18.44,3.44,3.44,0,0,0,.22.38A2.84,2.84,0,0,0,144.35,70Zm-14,6.84c0-1.69,3.17-1.82,3.17-3.17V71.57c0-.47.3-.94,1.42-.94a3.44,3.44,0,0,0,1.75-3.28,7.64,7.64,0,0,0-.52-3.42s-2.61-.08-2.61-1.53c0-1.16,1.87-1.27,2.62-1.27h.3v-.73a2,2,0,0,1-.26-.12,3.67,3.67,0,0,1-.7-.47,4.32,4.32,0,0,1-.88-1,4.88,4.88,0,0,1-.66-1.6c0-.16-.06-.33-.08-.49s0-.32-.05-.49a6.44,6.44,0,0,1,.05-1.07,5.54,5.54,0,0,1,.11-.56c.05-.19.12-.38.18-.56a3.86,3.86,0,0,1,.66-1,4.46,4.46,0,0,1,2.17-1.3,7.66,7.66,0,0,1,1.25-.24l.65-.06h.62a9.28,9.28,0,0,1,2.51.31,4.37,4.37,0,0,1,2.17,1.3,3.44,3.44,0,0,1,.66,1c.06.19.14.37.18.56a5.54,5.54,0,0,1,.11.56,5.35,5.35,0,0,1,.05.55c0,.17,0,.32,0,.51l0,.51c0,.16-.06.32-.09.48a4.67,4.67,0,0,1-.66,1.6,4.56,4.56,0,0,1-.87,1,3.67,3.67,0,0,1-.7.47,1.69,1.69,0,0,1-.27.12,2.56,2.56,0,0,0,.24-.16,3.82,3.82,0,0,0,.61-.55,4.32,4.32,0,0,0,.72-1,4.76,4.76,0,0,0,.47-1.52c0-.15,0-.29,0-.45v-.46c0-.16,0-.32,0-.49s0-.31-.07-.48a3.48,3.48,0,0,0-.87-1.77,3.86,3.86,0,0,0-1.85-1l-.54-.12c.83.7,1.11,2,1.11,4A5.2,5.2,0,0,1,140.9,60l-4.25.37,3.69.33v.07l-3.69.33,3.95.34a1.86,1.86,0,0,1-.08,2.2l-4.21.27,4,.26a25.51,25.51,0,0,0-.18,2.9,7.58,7.58,0,0,0,.13,1.37,12.12,12.12,0,0,1-.47-1.85,11.55,11.55,0,0,0-.08,2.11,12.68,12.68,0,0,0,.19,1.69l-4.61.24,6.51.33a1.11,1.11,0,0,1,.38.88v1.91l-8.12.44,8.31.46c.44.53,1.54.84,1.54,2v1.89c-1.26.12-2.72.24-4.18.32-2,.1-4,.13-5.48.1s-2.5-.06-2.5-.06,1,.15,2.48.32,3.49.36,5.5.47c1.45.07,2.91.1,4.18.11v1.31l.62,0c.5,0,1-.11,1.4-.18a11.86,11.86,0,0,0,2.05-.46,3.25,3.25,0,0,0,.73-.32,2.8,2.8,0,0,1-.7.39,6,6,0,0,1-.87.32,9.45,9.45,0,0,1-1.17.3c-.43.09-.9.18-1.4.25s-1,.14-1.59.18-1.11.08-1.69.1-1.17,0-1.75,0-1.18,0-1.76,0-1.15-.06-1.7-.1a24.7,24.7,0,0,1-3-.46,12.58,12.58,0,0,1-2-.61,4.9,4.9,0,0,1-.61-.3V78.8a4.17,4.17,0,0,0-.11-.94Zm-20.38-2.49V73.23a3.88,3.88,0,0,1-1-2s-1.13-1.08-1.13-4.45c0-3.12,7.46-8.05,8.53-11.83a8.06,8.06,0,0,0,1.12.09,8.54,8.54,0,0,0,1.44-.1c.38-.05.63-.11.63-.11s-.24-.08-.58-.23A8.05,8.05,0,0,1,117.8,54l-.43-.3.79.13.71,0c.24,0,.49,0,.72-.06l.68-.16c.21-.08.41-.17.6-.26a6.91,6.91,0,0,0,1-.63l.7-.64c.19-.19.34-.39.47-.54.25-.31.38-.49.38-.49s-.21.1-.55.29l-.61.34c-.24.11-.51.24-.8.4l-.45.17a2.19,2.19,0,0,1-.49.17l-.5.13c-.18,0-.35,0-.53.06l-.54,0-.59-.09-1.28-.25-.69-.1-.7,0a7.7,7.7,0,0,0-1.37.09l-.64.1-.59.17c-.2.06-.38.1-.56.17l-.5.21a6.2,6.2,0,0,0-.85.4c-.24.13-.44.26-.61.36l-.18.12a.22.22,0,0,1-.09-.12,4.08,4.08,0,0,0-.74-1.43l2.62-1.12L111.6,50l-3.7-.1a14.32,14.32,0,0,1-.05-1.5c0-1.11.44-2.54,3.42-2.54l.81-.06.79-.11c.53-.09,1.06-.19,1.58-.32a22.37,22.37,0,0,0,3-1l1.77-2.78.08-.12.15,0a17.29,17.29,0,0,1,2.18.51,14,14,0,0,1,2.09.82,9.76,9.76,0,0,1,3.55,2.77,6.75,6.75,0,0,1,1.07,2,7.33,7.33,0,0,1,.32,2.27,16.77,16.77,0,0,1-.18,2.24,13.65,13.65,0,0,1-.51,2.19,38.25,38.25,0,0,1-1.72,4.09,19.2,19.2,0,0,0-.77,2,11.68,11.68,0,0,0-.41,2.12,17.44,17.44,0,0,0-.08,2.18c0,.72,0,1.46.08,2.18a17.8,17.8,0,0,0,.28,2.18c.07.36.16.71.26,1.06a4.1,4.1,0,0,0,.43,1,6.5,6.5,0,0,1-.83-2,16.33,16.33,0,0,1-.39-2.18c-.1-.73-.16-1.47-.19-2.21a20.56,20.56,0,0,1,0-2.22,13.14,13.14,0,0,1,1.09-4.33,37.52,37.52,0,0,0,1.66-4,13.81,13.81,0,0,0,.46-2.1A15.47,15.47,0,0,0,128,50a6.9,6.9,0,0,0-.28-2.07,6.15,6.15,0,0,0-.94-1.86,9.16,9.16,0,0,0-3.31-2.62,16.54,16.54,0,0,0-2-.83c-.25-.09-.51-.17-.77-.24a13.29,13.29,0,0,1,2.25,1.4l-.83.12,1.2.18a9.55,9.55,0,0,1,1.26,1.28l-.9.15s0,0,0-.05a1.13,1.13,0,0,0-.5-.72,1.93,1.93,0,0,0-.67-.26,3.17,3.17,0,0,0-.6,0,3.81,3.81,0,0,0-1,.14,3.23,3.23,0,0,0-.92.36s.39.07,1,.14c.28,0,.6.08.93.14a2.58,2.58,0,0,1,.85.27.29.29,0,0,1,.14.16.56.56,0,0,1,0,.32,4,4,0,0,1-.14.41l-.18.39c-.13.26-.24.47-.31.62l-.12.25a2,2,0,0,0,.25-.13c.07-.05.17-.1.26-.17a2.29,2.29,0,0,0,.32-.26,2.85,2.85,0,0,0,.34-.35,1.94,1.94,0,0,0,.32-.51,1.23,1.23,0,0,0,.12-.57l1.26.21a7.2,7.2,0,0,1,.87,1.65l-1.52.38,1.77.44a7,7,0,0,1,.18,1.41l-1.84.45,1.83.45A9.6,9.6,0,0,1,126,52l-2,.49,1.71.42a13.34,13.34,0,0,1-.56,1.41l-1.92.47,1.49.37c-.27.5-.55,1-.85,1.48l-1.86.46,1.39.34c-.3.5-.59,1-.86,1.53l-1.74.43,1.36.34a15.19,15.19,0,0,0-.58,1.48l-2,.49,1.73.43a13.86,13.86,0,0,0-.28,1.4L119.2,64l1.82.45c0,.31,0,.63,0,1v.45l-1.92.43,1.93.43c0,.52,0,1,0,1.45l-2.11.43,2.14.43c0,.69.06,1.3.1,1.84l-11.6.48,11.69.48a17.32,17.32,0,0,0,.31,2.07l-11.25.48,11.86.51A6.74,6.74,0,0,1,124,79.43v1.18c-1.87.19-4.18.37-6.5.46-2.66.11-5.33.12-7.33.07-1,0-1.83-.06-2.41-.08l-.54,0c0-.22,0-.46,0-.71a3.25,3.25,0,0,0-.75-2.19C107,76,109.94,74.36,109.94,74.36Zm-6.64,3.38a14.51,14.51,0,0,0,1.42.68,3.24,3.24,0,0,1,.74.46,1.48,1.48,0,0,1,.46.75,1.29,1.29,0,0,1,.06.42v.18a1.09,1.09,0,0,1,0,.19,2.74,2.74,0,0,1-.13.68,1.91,1.91,0,0,1-.53.87,1,1,0,0,1-.33.2.93.93,0,0,0,.27-.26,1.81,1.81,0,0,0,.35-.87,3.1,3.1,0,0,0,.05-.63v-.16l0-.18a1.43,1.43,0,0,0-1.09-1.26,10.33,10.33,0,0,1-1.44-.75c-.12-.07-.22-.16-.32-.23l-.28-.25a2.9,2.9,0,0,1-.43-.54,2.58,2.58,0,0,1-.37-1,1.22,1.22,0,0,1,0-.38,1.69,1.69,0,0,0,.11.36,2.66,2.66,0,0,0,.49.82,3.69,3.69,0,0,0,.44.45l.28.2C103.1,77.61,103.19,77.68,103.3,77.74ZM98.57,43.23a10,10,0,0,1,.32-1.7,10.55,10.55,0,0,1,.5-1.42,9.33,9.33,0,0,1,.47-1c.12-.23.2-.35.2-.35s-.2.55-.43,1.38c-.12.42-.25.91-.36,1.43-.06.26-.11.54-.16.81S99,43,99,43.27l0,.42c0,.15,0,.29,0,.43s0,.56,0,.83A12.42,12.42,0,0,0,99,46.41a5.16,5.16,0,0,0,.22,1,1.65,1.65,0,0,0,.15.37,1.49,1.49,0,0,1-.23-.34,5.47,5.47,0,0,1-.36-1,6.61,6.61,0,0,1-.15-.7c0-.25-.07-.52-.09-.79s0-.56,0-.86S98.55,43.54,98.57,43.23Zm-.5,16.85a23,23,0,0,1,.31-2.79,10.68,10.68,0,0,1,.51-1.92,3.51,3.51,0,0,1,.31-.68,5.2,5.2,0,0,0-.23.71,13.45,13.45,0,0,0-.35,1.93,27.41,27.41,0,0,0-.17,2.76c0,.5,0,1,0,1.56,0,.26,0,.53,0,.79s0,.54.09.8c.05.54.14,1.07.23,1.6s.19,1,.3,1.53c.22,1,.44,1.91.67,2.69s.4,1.44.54,1.89l.23.72s-.12-.25-.3-.69-.45-1.07-.7-1.85-.56-1.68-.81-2.68c-.12-.49-.24-1-.34-1.54s-.19-1.07-.25-1.62c0-.27-.06-.54-.08-.81s0-.55,0-.82C98,61.11,98.05,60.59,98.07,60.08ZM85.5,73.87c0-1.24,1.45-1.29,1.66-1.29h0s2.57-6.41,2.57-11.67-1.05-7.14-1.05-7.14c-1.82,0-2.69-.55-2.69-1.87a1.72,1.72,0,0,1,1.34-1.63,1.73,1.73,0,0,1,1.17-1.81s.7-.86.7-3.78A13.62,13.62,0,0,0,87.74,39h2.09c.51-1.67,2.81-2.1,2.81-2.1a1.06,1.06,0,0,1-.21-.26,2.6,2.6,0,0,1-.34-1.41A1.13,1.13,0,0,1,93,34.12a2.77,2.77,0,0,1,.74-.09,2.7,2.7,0,0,1,.75.09,1.22,1.22,0,0,1,.66.43,1.2,1.2,0,0,1,.24.68,2.74,2.74,0,0,1,0,.59,2.44,2.44,0,0,1-.3.82,1.45,1.45,0,0,1-.21.26,1.15,1.15,0,0,0,.13-.29,2.68,2.68,0,0,0,.13-.81,3.38,3.38,0,0,0,0-.54,1,1,0,0,0-.21-.48,1,1,0,0,0-.59-.28c.33.5,0,1.59-.15,2.11l-1.37.29,1.6.17a3.21,3.21,0,0,1,1.53,1.5L90,39l7,.52a6.18,6.18,0,0,0-1.72,4.31,16,16,0,0,0,.4,4.1l-6.81.44,7.65.5a2.42,2.42,0,0,1,.47.92l-9.51.48,9.93.5a2.28,2.28,0,0,1,0,2.45L89,53.78l7.79.51a11.85,11.85,0,0,0-1.23,5.49,82.34,82.34,0,0,0,1,9.61c-.17-.5-.33-1-.49-1.59A46,46,0,0,1,95,63.14,44.71,44.71,0,0,0,95,68c.08,1.68.3,3.36.43,4.23l-7.76.4,9.92.51a2.17,2.17,0,0,1,.25,1.76l-11.24.66,10.9.65a6.39,6.39,0,0,0,.84,2.3c.75,1.23,1.86,1.62,1.25,3.55-1.76.17-3.85.32-6,.41-2.62.11-5.25.11-7.23.06-1,0-1.81-.06-2.38-.08l-.91-.05.9.12,2.38.28c2,.21,4.6.42,7.24.53,2.18.09,4.35.1,6.17.08a2.74,2.74,0,0,1,0,2.49l.32,0c.64,0,1.24-.1,1.79-.17l1.5-.21c.44-.08.83-.17,1.14-.26a4.91,4.91,0,0,0,.7-.26,1,1,0,0,0,.23-.13,1.19,1.19,0,0,1-.21.15,5.52,5.52,0,0,1-.7.32,10.9,10.9,0,0,1-1.13.33,14.7,14.7,0,0,1-1.5.3c-.55.09-1.15.17-1.79.24s-1.31.14-2,.17-1.42.07-2.15.09-1.48,0-2.22,0l-2.23,0c-.73,0-1.45-.05-2.15-.09s-1.37-.11-2-.17-1.24-.15-1.79-.24a15.27,15.27,0,0,1-1.5-.3c-.44-.11-.82-.22-1.13-.33a4.7,4.7,0,0,1-.69-.32.88.88,0,0,1-.2-.14h0c0-1.92.82-2.49.82-2.49S82,82,82,80.32s1.39-1.59,2.86-2.54a3,3,0,0,0,1.5-2.24S85.5,75.21,85.5,73.87Zm-4.26,0a.81.81,0,0,0,.09.28,2,2,0,0,0,.74.77c.36.26.83.52,1.31.89a4.1,4.1,0,0,1,.53.5l0,0-.35.19a4,4,0,0,0-.41-.41c-.42-.37-.87-.67-1.22-1a2,2,0,0,1-.66-.94,1,1,0,0,1,0-.31v-.11Zm-1.47-5.47a2.87,2.87,0,0,1-.36-.53,7.41,7.41,0,0,1-.62-1.59c-.1-.33-.18-.71-.26-1.1s-.14-.82-.2-1.26-.09-.89-.1-1.35,0-.93,0-1.4c0-.93,0-1.86.06-2.73s.11-1.69.18-2.39.15-1.27.21-1.67.12-.63.12-.63,0,.23,0,.64,0,1-.06,1.68,0,1.51,0,2.38,0,1.8,0,2.73c0,.46,0,.92,0,1.37s0,.9.08,1.33a19.78,19.78,0,0,0,.3,2.34c.07.34.15.65.22.92s.16.5.23.69A3.15,3.15,0,0,0,79.77,68.41Zm-16,1.31s1.42-2.66,1.42-8.39a57.1,57.1,0,0,0-.37-8V52.2c0-.65-1.63-.67-1.63-1.4s.56-.77.56-.77,0-.37,0-1-.07-1.6-.08-2.73a.85.85,0,0,1,.1-.48.76.76,0,0,1,.41-.34,3,3,0,0,1,1-.13c.65,0,1.32,0,2,0l4.41,0,4.42,0,2,0a3,3,0,0,1,1,.13.8.8,0,0,1,.41.34,1.09,1.09,0,0,1,.1.48c0,.58,0,1.08,0,1.54s0,.86,0,1.19c0,.66,0,1,0,1s0-.37,0-1c0-.33,0-.73,0-1.19s0-1,0-1.53a.53.53,0,0,0-.36-.56,2.75,2.75,0,0,0-.88-.08c-.65,0-1.33,0-2,0H75.7a1.67,1.67,0,0,1,.24,1v2.78l-12,.57,12.3.58a1.24,1.24,0,0,1,0,.76L65,52l10.56.58a30,30,0,0,0-1,8.37,37,37,0,0,0,.73,6.51,34,34,0,0,1-1.49-7.68c-.09-1.12-.1-1.88-.1-1.88s-.13.74-.25,1.87A34.41,34.41,0,0,0,73.16,64a34,34,0,0,0,.3,4.23c.06.43.11.8.16,1.1L64,69.74l12.19.58a3.82,3.82,0,0,1,.44,1.79v1.67l-13.36.58,13.46.58c.41.92,2.15,1.7,2.15,2.89v1.81l-.51.06c-2,.21-4.63.42-7.29.53s-5.32.12-7.32.06c-1,0-1.84-.05-2.42-.08l-.92,0,.91.12,2.41.28c2,.21,4.66.43,7.34.54s5.37.11,7.39.06h.41v2.06L80,83.07l.59-.09-.06.24-.49.1c-.57.11-1.19.21-1.84.3s-1.35.19-2.07.24-1.46.11-2.22.15-1.52,0-2.3.06-1.54,0-2.29-.06-1.5-.08-2.22-.15-1.42-.15-2.07-.24-1.27-.19-1.84-.3c-1.14-.21-2.07-.46-2.71-.64s-1-.33-1-.33h0v-4.5c0-2.21,3.19-2.47,3.19-4.08S62.72,69.72,63.77,69.72Zm-6.2,4a.57.57,0,0,0,.09.23,1,1,0,0,0,.23.29,3.84,3.84,0,0,0,.42.27c.2.11.43.22.68.34a2.66,2.66,0,0,0-.23.24c-.21-.13-.41-.25-.58-.38s-.16-.12-.22-.18l-.18-.18a1.36,1.36,0,0,1-.2-.37.48.48,0,0,1,0-.25v-.09ZM56,70a1.23,1.23,0,0,1-.25-.09,2.39,2.39,0,0,1-.57-.42,2.8,2.8,0,0,1-.56-.84,3.5,3.5,0,0,1-.17-.55,2.88,2.88,0,0,1-.07-.59,7.47,7.47,0,0,1,.23-2.09,3.41,3.41,0,0,1,.25-.65,2,2,0,0,1,.14-.23,2,2,0,0,0-.06.26,4.21,4.21,0,0,0-.09.66c0,.28-.05.6-.06,1,0,.17,0,.35,0,.53s0,.38,0,.55a4.53,4.53,0,0,0,0,.53,2.38,2.38,0,0,1,.05.26l.07.24a3.65,3.65,0,0,0,.18.44c.07.14.15.26.22.38A2.75,2.75,0,0,0,56,70ZM45.09,73.68V71.57c0-.47.3-.94,1.43-.94a3.44,3.44,0,0,0,1.75-3.28,7.64,7.64,0,0,0-.52-3.42s-2.62-.08-2.62-1.53c0-1.16,1.88-1.27,2.62-1.27h.31v-.73a1.69,1.69,0,0,1-.27-.12,3.67,3.67,0,0,1-.7-.47,4.3,4.3,0,0,1-.87-1,4.48,4.48,0,0,1-.66-1.6c0-.16-.07-.33-.09-.49s0-.32,0-.49a6.44,6.44,0,0,1,0-1.07,3.69,3.69,0,0,1,.11-.56,3.65,3.65,0,0,1,.18-.56,3.6,3.6,0,0,1,.65-1,4.44,4.44,0,0,1,2.18-1.3,7.66,7.66,0,0,1,1.25-.24l.64-.06h.62a9.41,9.41,0,0,1,2.52.31A4.46,4.46,0,0,1,55.8,53a3.86,3.86,0,0,1,.66,1c.06.19.13.37.18.56s.09.37.11.56,0,.38,0,.55,0,.32,0,.51l0,.51c0,.16-.06.32-.08.48a4.88,4.88,0,0,1-.66,1.6,4.32,4.32,0,0,1-.88,1,3.67,3.67,0,0,1-.7.47,2,2,0,0,1-.26.12l.24-.16a4.52,4.52,0,0,0,1.32-1.57,4.76,4.76,0,0,0,.47-1.52c0-.15,0-.29,0-.45v-.46l0-.49c0-.17-.05-.31-.07-.48a3.42,3.42,0,0,0-.88-1.77,3.82,3.82,0,0,0-1.85-1,4.71,4.71,0,0,0-.54-.12c.83.7,1.12,2,1.12,4A5.16,5.16,0,0,1,52.5,60l-4.24.37,3.68.33v.07l-3.68.33,4,.34a1.85,1.85,0,0,1-.09,2.2L47.91,64l4,.26a22.83,22.83,0,0,0-.19,2.9,7.57,7.57,0,0,0,.14,1.37,12.88,12.88,0,0,1-.48-1.85,12.69,12.69,0,0,0-.08,2.11,12.48,12.48,0,0,0,.2,1.69l-4.62.24,6.52.33a1.14,1.14,0,0,1,.38.88v1.91l-8.12.44,8.3.46c.45.53,1.54.84,1.54,2v1.89c-1.25.12-2.71.24-4.17.32-2,.1-4,.13-5.49.1s-2.49-.06-2.49-.06,1,.15,2.48.32,3.49.36,5.5.47c1.45.07,2.91.1,4.17.11v1.31l.62,0c.5,0,1-.11,1.4-.18h.12v.23h-.07c-.44.09-.91.18-1.41.25s-1,.14-1.58.18-1.12.08-1.7.1-1.16,0-1.75,0-1.17,0-1.75,0-1.15-.06-1.7-.1a24.09,24.09,0,0,1-3-.46,12,12,0,0,1-2-.61,5.18,5.18,0,0,1-.73-.36h0V76.85C41.92,75.16,45.09,75,45.09,73.68Z"/><path class="cls-1" d="M52.6,58.55c.12-.28.24-.62.36-1s.15-.79.2-1.2,0-.83,0-1.21-.15-.74-.23-1-.21-.53-.28-.69l-.14-.25s0,.1,0,.28a6.56,6.56,0,0,1,0,.73,8.79,8.79,0,0,1,0,1,11.23,11.23,0,0,1-.07,1.13,10.18,10.18,0,0,1-.08,1.12,8.93,8.93,0,0,1-.1,1c0,.3,0,.55-.07.73l0,.28.17-.23C52.32,59.05,52.46,58.83,52.6,58.55Z"/><path class="cls-1" d="M43.64,76.59l-.44,0,.42.14,1.11.29,1.59.28c.59.06,1.22.11,1.85.15s1.27,0,1.86,0,1.14-.11,1.61-.17L52.76,77l.43-.11-.44-.05-1.13-.08c-.47,0-1,0-1.6-.08s-1.2,0-1.82-.07-1.24,0-1.82-.05-1.13,0-1.6,0Z"/><path class="cls-1" d="M47.08,53.47a4.67,4.67,0,0,0-.59,1.05,4.67,4.67,0,0,0-.23,2.73,4.39,4.39,0,0,0,.39,1.13,4.64,4.64,0,0,0,.45.72l.21.24a2.52,2.52,0,0,1-.14-.29,6.41,6.41,0,0,1-.3-.75,5.49,5.49,0,0,1-.26-1.11,5,5,0,0,1,0-1.29,5.12,5.12,0,0,1,.25-1.26,6.51,6.51,0,0,1,.44-1,6.85,6.85,0,0,1,.43-.69l.19-.26-.25.2A4.25,4.25,0,0,0,47.08,53.47Z"/><path class="cls-1" d="M141,58.55c.12-.28.24-.62.36-1a11.12,11.12,0,0,0,.2-1.2,11.93,11.93,0,0,0,0-1.21,9.68,9.68,0,0,0-.23-1c-.1-.29-.2-.53-.27-.69l-.14-.25,0,.28c0,.18,0,.43,0,.73s0,.64,0,1a11.13,11.13,0,0,1-.06,1.13,10.15,10.15,0,0,1-.09,1.12,8.93,8.93,0,0,1-.1,1,5.64,5.64,0,0,1-.07.73l0,.28.17-.23A6.2,6.2,0,0,0,141,58.55Z"/><path class="cls-1" d="M133.12,77l1.6.28c.59.06,1.22.11,1.85.15s1.26,0,1.85,0,1.14-.11,1.61-.17l1.13-.23.42-.11-.43-.05L140,76.8c-.47,0-1,0-1.59-.08s-1.21,0-1.83-.07-1.24,0-1.82-.05-1.13,0-1.59,0H132l-.43,0,.41.14Z"/><path class="cls-1" d="M135.47,53.47a4.31,4.31,0,0,0-.58,1.05,5.23,5.23,0,0,0-.33,1.35,5.69,5.69,0,0,0,.09,1.38,4.79,4.79,0,0,0,.4,1.13,4,4,0,0,0,.45.72l.21.24a2.52,2.52,0,0,1-.14-.29,6.18,6.18,0,0,1-.31-.75,7.28,7.28,0,0,1-.26-1.11,5.53,5.53,0,0,1,0-1.29,5.12,5.12,0,0,1,.25-1.26,6.49,6.49,0,0,1,.45-1,5.41,5.41,0,0,1,.43-.69c.11-.17.18-.26.18-.26l-.24.2A4.22,4.22,0,0,0,135.47,53.47Z"/><path class="cls-1" d="M110.49,68.16c.08.8.17,1.47.25,1.93s.17.72.17.72,0-.27,0-.73,0-1.14.07-1.93q0-.6.06-1.29a1.72,1.72,0,0,1,0-.33l0-.17,0-.14a2.93,2.93,0,0,1,.24-.59,5.91,5.91,0,0,1,.84-1.17c.32-.39.68-.77,1-1.15s.73-.78,1.1-1.16.7-.78,1-1.18a13.48,13.48,0,0,0,1.54-2.32,9.25,9.25,0,0,0,.7-1.84c.06-.23.08-.42.11-.54l0-.19s-.1.25-.31.67a13.63,13.63,0,0,1-1,1.63c-.22.32-.48.66-.76,1s-.6.7-.93,1.07-.69.72-1,1.1-.74.75-1.1,1.14a10.18,10.18,0,0,0-1.95,2.6,3.07,3.07,0,0,0-.23.8l0,.22v.17c0,.16,0,.25,0,.37C110.42,67.32,110.46,67.76,110.49,68.16Z"/><path class="cls-1" d="M116.58,62.6a9.39,9.39,0,0,0-.58,1.29,4.89,4.89,0,0,0-.27,1.4c0,.46,0,.87.06,1.26s0,.77.09,1.11c.07.69.15,1.26.23,1.65s.14.62.14.62,0-.23,0-.63,0-1,0-1.65c0-.34,0-.71,0-1.1s0-.81.08-1.21a5.06,5.06,0,0,1,.33-1.16,11.41,11.41,0,0,1,.58-1.16c.45-.77.93-1.56,1.32-2.34a14.17,14.17,0,0,0,.92-2.19,11,11,0,0,0,.4-1.63c.07-.4.09-.63.09-.63s-.09.21-.27.57-.41.88-.72,1.48-.69,1.29-1.12,2l-.68,1.12C117,61.79,116.8,62.18,116.58,62.6Z"/><path class="cls-1" d="M112.18,73.39c.76.06,1.78.09,2.8.1s2,0,2.81-.1c.38,0,.7-.06.93-.08l.35,0-.35,0c-.23,0-.55-.06-.93-.08-.76-.06-1.78-.09-2.81-.1s-2,0-2.8.1c-.39,0-.7.06-.93.08l-.35,0,.35,0C111.48,73.33,111.79,73.37,112.18,73.39Z"/><path class="cls-1" d="M108.67,47.29c-.28.39-.32.84-.09,1s.63,0,.91-.42.32-.84.1-1S109,46.9,108.67,47.29Z"/><path class="cls-1" d="M116.51,46.68c.59-.06,1-.42,1-.81s-.56-.66-1.15-.6-1,.43-1,.82S115.92,46.75,116.51,46.68Z"/><path class="cls-1" d="M117.49,51.31a4.85,4.85,0,0,0-.81-.25c-.15,0-.31-.06-.48-.07l-.49,0a5.19,5.19,0,0,0-1,.08,3.46,3.46,0,0,0-.82.24,2.42,2.42,0,0,0-.72.41l.8-.1a14.72,14.72,0,0,1,1.71-.07h.46a3.46,3.46,0,0,0,.45,0l.81.07.58.06h.23l-.2-.12A2.73,2.73,0,0,0,117.49,51.31Z"/><path class="cls-1" d="M111.65,78.33c-.82,0-1.59,0-2.25-.09s-1.22,0-1.61,0h-.62l.59.18,1.58.38c.65.12,1.42.24,2.25.36s1.72.15,2.62.2,1.78,0,2.62,0,1.61-.14,2.27-.23,1.21-.21,1.59-.29l.6-.14-.61,0c-.39,0-1,0-1.61,0s-1.43,0-2.26,0-1.7,0-2.58-.07S112.47,78.38,111.65,78.33Z"/><path class="cls-1" d="M120,42.21l-.11.08a2.3,2.3,0,0,0-.25.23c-.09.11-.21.22-.31.36l-.32.43-.27.47c-.08.14-.14.3-.2.42s-.08.25-.11.33l0,.13.1-.09a2.3,2.3,0,0,0,.25-.23,4.05,4.05,0,0,0,.31-.36c.11-.13.21-.28.32-.43l.27-.46c.09-.15.14-.31.2-.43a1.8,1.8,0,0,0,.11-.33Z"/><path class="cls-1" d="M74.5,48.66l.17.37.09.14.09-.14.16-.37.14-.52.06-.6-.06-.6c-.05-.2-.1-.37-.14-.53L74.84,46l-.08-.14-.09.14-.16.37c0,.16-.09.33-.14.53s0,.39-.06.6,0,.41.06.6Z"/><path class="cls-1" d="M72.15,78c-.63,0-1.38,0-2.17-.1s-1.65,0-2.5-.08-1.69,0-2.49,0-1.54,0-2.18,0l-1.55,0-.59,0,.57.15,1.53.29L65,78.6c.8.06,1.66.11,2.51.15s1.72,0,2.52,0,1.55-.11,2.19-.17l1.54-.23.58-.11-.59-.06Z"/><path class="cls-1" d="M66.48,64.91c.13-.53.25-1.16.37-1.84s.16-1.41.21-2.15,0-1.47,0-2.15-.15-1.32-.24-1.87-.22-1-.3-1.29l-.15-.49s0,.18,0,.51,0,.77,0,1.31,0,1.18,0,1.85,0,1.39-.07,2.1,0,1.43-.09,2.1,0,1.31-.1,1.85,0,1-.06,1.31l0,.51.19-.47C66.19,65.88,66.33,65.44,66.48,64.91Z"/><path class="cls-1" d="M64.45,48.68c0,.15.07.27.09.36l0,.14,0-.14a3.17,3.17,0,0,0,.08-.37c0-.15.05-.32.06-.51s0-.39,0-.59l0-.6c0-.18,0-.36-.07-.51s-.07-.28-.09-.37l0-.13,0,.14a2.93,2.93,0,0,0-.08.36c0,.15,0,.33-.06.52s0,.39,0,.59,0,.4,0,.59S64.43,48.53,64.45,48.68Z"/><path class="cls-1" d="M93.26,45.23a4.06,4.06,0,0,0,.19.62,2.73,2.73,0,0,0,.23.52,3.42,3.42,0,0,0,.48.72c.14.15.23.23.23.23s0-.12,0-.33,0-.48,0-.81v-.51c0-.18,0-.38,0-.57v-.59c0-.2,0-.4,0-.61s0-.4,0-.6l0-.59c0-.39.08-.76.12-1.08s.07-.61.09-.8a2.6,2.6,0,0,0,0-.33,2.58,2.58,0,0,0-.25.21,3.07,3.07,0,0,0-.56.66,4.43,4.43,0,0,0-.54,1.09,4.37,4.37,0,0,0-.17.67,5.59,5.59,0,0,0-.09.7c0,.24,0,.48,0,.72S93.23,45,93.26,45.23Z"/><path class="cls-1" d="M94.31,79.59l-1.23-.06-1.73-.06c-.63,0-1.3,0-2-.07s-1.34,0-2-.05-1.22,0-1.72,0-.94,0-1.24,0H84l.45.16c.29.08.7.2,1.2.32s1.09.21,1.72.31,1.32.12,2,.17,1.37,0,2-.05,1.23-.13,1.74-.2l1.22-.25.45-.13Z"/><path class="cls-1" d="M89.87,68.65c.11-.25.23-.52.35-.83a22.2,22.2,0,0,0,.66-2.14c.17-.8.31-1.66.41-2.54s0-1.75,0-2.57S91.13,59,91,58.35c-.07-.32-.14-.61-.21-.86s-.13-.48-.19-.67c-.13-.35-.2-.56-.2-.56s0,.22,0,.6c0,.18,0,.41,0,.67s0,.56,0,.88c0,.64,0,1.39,0,2.18s0,1.64-.13,2.48a23.58,23.58,0,0,1-.28,2.47c-.11.79-.24,1.53-.39,2.15-.05.32-.12.6-.18.86s-.11.48-.16.66l-.13.58.29-.52C89.67,69.1,89.76,68.89,89.87,68.65Z"/><path class="cls-1" d="M89.61,43.87a7.48,7.48,0,0,1,.08,1.33c0,.44,0,.84,0,1.19s0,.65,0,.85v.33l.09-.31c0-.2.13-.49.2-.84a11.17,11.17,0,0,0,.17-1.2,8.4,8.4,0,0,0,0-1.41,6.56,6.56,0,0,0-.37-1.37,8.44,8.44,0,0,0-.56-1.09,7.93,7.93,0,0,0-.47-.71l-.19-.26.12.3c.08.19.19.46.33.78s.28.7.42,1.11A6,6,0,0,1,89.61,43.87Z"/><polygon class="cls-1" points="75.1 125.26 75.02 125.26 74.7 126.71 75.42 126.71 75.1 125.26"/><polygon class="cls-1" points="86.71 125.26 86.39 126.71 87.11 126.71 86.79 125.26 86.71 125.26"/><path class="cls-1" d="M94.61,115.68l-36,.24a139.33,139.33,0,0,0,36.16,31.19,139.27,139.27,0,0,0,36.56-31.68l-36.58.24Zm11.47,20.13c-1.55.08-3.35.14-5.28.19-1,0-2,.05-3,.05l-3.07,0-3.07,0c-1,0-2,0-3-.06-1.93,0-3.73-.1-5.27-.18-3.09-.15-5.14-.35-5.14-.35s2-.21,5.14-.35c1.54-.08,3.34-.14,5.27-.19,1,0,2,0,3,0l3.07,0,3.07,0c1,0,2,0,3,0,1.93,0,3.73.11,5.28.19,3.08.14,5.14.35,5.14.35S109.16,135.66,106.08,135.81Zm12.55-17.49c-1.42.06-3.46.17-5.91.24s-5.31.14-8.37.18c-1.53,0-3.11.05-4.72.05l-4.87,0-4.87,0-4.72-.05c-3.06,0-5.92-.11-8.37-.19s-4.49-.17-5.92-.23-2.24-.12-2.24-.12.81,0,2.24-.11,3.47-.17,5.92-.23,5.31-.15,8.37-.19l4.72,0,4.87,0,4.87,0c1.61,0,3.19,0,4.72.06,3.06,0,5.92.11,8.37.18s4.49.18,5.91.24l2.25.11S120.06,118.26,118.63,118.32Z"/><path class="cls-1" d="M125.75,139.3q3-2.91,5.92-6,4.52-4.78,8.6-9.91,2.76-3.45,5.32-7l.87-1.25c.48-.68.95-1.36,1.41-2.05a163.23,163.23,0,0,0,9-15c.63-1.19,1.24-2.38,1.84-3.58q3-6,5.51-12.33c.55-1.37,1.07-2.76,1.59-4.15,1-2.85,2-5.72,2.89-8.63.31-1,.62-2.09.91-3.14,0-.09.05-.18.08-.27l.27-1c.1-.34.19-.67.27-1,.19-.68.37-1.37.54-2.06q1.14-4.52,2-9.1.68-3.54,1.2-7.11l.33-2.41c.17-1.31.32-2.62.46-3.94a160.31,160.31,0,0,0,.9-17h0l-1.6-.91-2.83-1.57-.5-.26c-.58-.32-1.17-.63-1.76-.93l-1.09-.57-1-.51q-3.07-1.55-6.18-3c-1.18-.54-2.37-1.06-3.56-1.57l-.46-.19q-4.29-1.81-8.66-3.39l-1.94-.69L143.74,8a156.86,156.86,0,0,0-49-8V4.89c25.9,0,52.13,7,76,20.28a157,157,0,0,1-76,131.71,157,157,0,0,1-76-131.71c23.91-13.28,50.14-20.28,76-20.28V0h0a156.82,156.82,0,0,0-49,8l-2.37.8-1.95.69q-4.37,1.57-8.66,3.39l-.45.19c-1.19.51-2.38,1-3.56,1.57q-3.12,1.41-6.18,3l-1,.51-1.09.57q-.88.45-1.77.93l-.49.26c-.95.52-1.9,1-2.84,1.57l-1.6.91h0a163,163,0,0,0,.9,17c.14,1.32.3,2.63.47,3.94.1.8.21,1.61.33,2.41q.52,3.57,1.2,7.11.89,4.59,2,9.1L19.25,64l.27,1c.09.33.19.66.28,1,0,.09.05.18.07.27.3,1,.6,2.1.92,3.14.88,2.91,1.85,5.78,2.89,8.63.51,1.39,1,2.78,1.59,4.15q2.49,6.28,5.51,12.33c.6,1.2,1.21,2.39,1.84,3.58a163.13,163.13,0,0,0,9,15l1.41,2.05.88,1.25q2.55,3.59,5.32,7,4.08,5.12,8.59,9.91c1.92,2,3.9,4,5.92,6l.66.63c1.35,1.28,2.73,2.54,4.12,3.77q3.21,2.84,6.57,5.49c1.19.95,2.41,1.89,3.64,2.81l1,.71,1.26.92.78.56c.74.52,1.47,1,2.22,1.55q5.23,3.6,10.79,6.81h0q5.55-3.21,10.79-6.81l2.21-1.55.79-.56,1.26-.92,1-.71q1.85-1.38,3.64-2.81,3.36-2.66,6.56-5.49,2.1-1.84,4.12-3.77Z"/><path class="cls-1" d="M23.43,27.81h0A142.67,142.67,0,0,0,94.76,151.36h0A142.67,142.67,0,0,0,166.09,27.81h0a142.68,142.68,0,0,0-142.66,0ZM160.6,29l1.81,1,0,1.33c0,1.52-.1,3-.19,4.56-.05.85-.1,1.69-.17,2.53q-.17,2.28-.42,4.53c-.09.86-.19,1.71-.3,2.56-.19,1.51-.41,3-.66,4.51-.13.86-.28,1.71-.44,2.56-.27,1.52-.57,3-.89,4.53-.18.84-.38,1.69-.57,2.54-.36,1.53-.75,3.05-1.16,4.56-.22.83-.45,1.65-.69,2.48q-.67,2.32-1.43,4.63c-.27.8-.54,1.6-.82,2.4s-.67,1.89-1,2.82c-.49,1.3-1,2.59-1.52,3.88-.61,1.5-1.25,3-1.91,4.48-.79,1.75-1.62,3.5-2.48,5.22-.2.38-.39.77-.58,1.15q-1.59,3.09-3.33,6.11c0,.08-.1.16-.14.25-.19.31-.38.61-.56.92l-.6,1c-.13.22-.27.44-.4.67q-2.52,4.13-5.3,8.06l-.39.54c-1.63,2.28-3.32,4.5-5.09,6.67a139.27,139.27,0,0,1-36.56,31.68A139.33,139.33,0,0,1,58.6,115.92q-2.87-3.49-5.49-7.16l-.39-.54q-2.79-3.93-5.3-8.06l-.4-.68c-.21-.34-.41-.68-.61-1l-.54-.89-.16-.26-.61-1.08q-1.41-2.49-2.71-5c-.2-.38-.39-.77-.58-1.15-.86-1.72-1.69-3.47-2.48-5.22-.66-1.48-1.3-3-1.92-4.48l-.42-1c-.19-.47-.37-.94-.55-1.41l0-.08c-.17-.44-.34-.89-.5-1.34q-.52-1.39-1-2.82c-.28-.8-.55-1.6-.82-2.4q-.75-2.31-1.43-4.63c-.24-.83-.47-1.65-.69-2.48-.42-1.51-.8-3-1.16-4.56-.2-.85-.39-1.7-.57-2.54-.32-1.51-.62-3-.9-4.53-.15-.85-.3-1.7-.44-2.56-.24-1.5-.46-3-.65-4.51-.11-.85-.21-1.7-.3-2.56q-.26-2.25-.42-4.53c-.07-.84-.12-1.68-.17-2.53-.09-1.52-.15-3-.19-4.56,0-.44,0-.88,0-1.33.6-.33,1.2-.66,1.81-1A138.94,138.94,0,0,1,160.6,29Z"/><path class="cls-1" d="M154.64,73.65c.28-.8.55-1.6.82-2.4l-13.27,1.24Z"/><path class="cls-1" d="M156.89,66.62c.24-.83.47-1.65.69-2.48L144,65.41Z"/><path class="cls-1" d="M158.74,59.58c.19-.85.39-1.7.57-2.54l-13.89,1.29Z"/><path class="cls-1" d="M160.2,52.51c.16-.85.31-1.7.44-2.56l-13.92,1.3Z"/><path class="cls-1" d="M161.3,45.44c.11-.85.21-1.7.3-2.56l-13.83,1.3Z"/><path class="cls-1" d="M162,38.35c.07-.84.12-1.68.17-2.53L148.56,37.1Z"/><path class="cls-1" d="M149.12,30l13.26,1.24,0-1.33-1.81-1Z"/><path class="cls-1" d="M34.06,71.25c.27.8.54,1.6.82,2.4l12.45-1.16Z"/><path class="cls-1" d="M31.94,64.14c.22.83.45,1.65.69,2.48l12.88-1.21Z"/><path class="cls-1" d="M30.21,57c.18.84.37,1.69.57,2.54l13.31-1.25Z"/><path class="cls-1" d="M28.87,50c.14.86.29,1.71.44,2.56l13.48-1.26Z"/><path class="cls-1" d="M27.92,42.88c.09.86.19,1.71.3,2.56l13.53-1.26Z"/><path class="cls-1" d="M41,37.1,27.33,35.82c.05.85.1,1.69.17,2.53Z"/><path class="cls-1" d="M40.4,30,28.92,29c-.61.32-1.21.65-1.81,1,0,.45,0,.89,0,1.33Z"/><path class="cls-1" d="M84.81,16c1,.05,2,.1,3.13.12s2.21.08,3.36.08l3.46,0,3.46,0c1.14,0,2.27-.05,3.35-.07s2.14-.08,3.14-.13,1.94-.1,2.81-.15c3.48-.22,5.8-.53,5.8-.53s-2.32-.31-5.8-.53c-.87,0-1.81-.11-2.81-.15s-2-.1-3.14-.13-2.21-.07-3.35-.07l-3.46,0-3.46,0c-1.15,0-2.27.05-3.36.08s-2.14.07-3.13.12-1.94.1-2.81.16c-3.48.21-5.8.52-5.8.52s2.32.31,5.8.52C82.87,15.9,83.81,16,84.81,16Z"/><text/><text class="cls-2" transform="translate(69.42 130.38)"><tspan class="cls-3">C</tspan><tspan x="9" y="0">AS</tspan><tspan class="cls-4" x="24.95" y="0">U</tspan><tspan x="33.06" y="0">AL</tspan></text></g></g></svg>