<svg xmlns="http://www.w3.org/2000/svg" viewBox="0 0 189.88 191.2"><defs><style>.cls-1,.cls-2{fill:#3f3f3f;}.cls-2{font-size:16.79px;font-family:Rockwell-ExtraBold, Rockwell Extra;font-weight:800;}.cls-3{letter-spacing:-0.02em;}.cls-4{letter-spacing:0em;}</style></defs><title>Ativo 4</title><g id="Camada_2" data-name="Camada 2"><g id="Layer_1" data-name="Layer 1"><path class="cls-1" d="M82.32,176.52a15.5,15.5,0,0,0,1.47,3.75,5.18,5.18,0,0,0,4.42,2.6,20.42,20.42,0,0,0-1.45-6c-1.52-.15-3-.34-4.52-.58A2.76,2.76,0,0,1,82.32,176.52Z"/><path class="cls-1" d="M83,184.9a22,22,0,0,0-2.87,3.1A10.53,10.53,0,0,1,77,190.81a8.81,8.81,0,0,0,6.91-.72c2-1.26,3.3-3.84,4.18-6.37A5.43,5.43,0,0,0,83,184.9Z"/><path class="cls-1" d="M73.87,174.55a15,15,0,0,0,1,3.87,5.18,5.18,0,0,0,4.13,3,21.28,21.28,0,0,0-.71-5.89c-1.51-.31-3-.67-4.49-1.07Z"/><path class="cls-1" d="M73.69,182.94a22.85,22.85,0,0,0-3.19,2.8,10,10,0,0,1-3.41,2.43,8.48,8.48,0,0,0,6.94,0c2.18-1.06,3.7-3.49,4.84-5.92A5.45,5.45,0,0,0,73.69,182.94Z"/><path class="cls-1" d="M66.3,175.66a5.1,5.1,0,0,0,3.8,3.4,22.49,22.49,0,0,0,0-5.69c-1.48-.47-3-1-4.39-1.54A14.9,14.9,0,0,0,66.3,175.66Z"/><path class="cls-1" d="M64.59,180a22.84,22.84,0,0,0-3.47,2.47,10.14,10.14,0,0,1-3.64,2,11.43,11.43,0,0,0,1.57.77,9.33,9.33,0,0,0,1.76.37,7.83,7.83,0,0,0,3.56-.38c2.28-.83,4.06-3.1,5.46-5.4A5.52,5.52,0,0,0,64.59,180Z"/><path class="cls-1" d="M58,172a5.08,5.08,0,0,0,3.43,3.74,22.75,22.75,0,0,0,.57-5.46c-1.43-.63-2.84-1.29-4.22-2A14.26,14.26,0,0,0,58,172Z"/><path class="cls-1" d="M61.09,176.56a5.54,5.54,0,0,0-5.24-.36,24,24,0,0,0-3.72,2.1,10.87,10.87,0,0,1-3.81,1.61,8,8,0,0,0,6.76,1.48C57.44,180.79,59.45,178.71,61.09,176.56Z"/><path class="cls-1" d="M50.17,167.58a5,5,0,0,0,3,4,22.88,22.88,0,0,0,1.13-5.18q-2-1.17-4-2.46A12.3,12.3,0,0,0,50.17,167.58Z"/><path class="cls-1" d="M52.76,172.36a5.6,5.6,0,0,0-5.19-.87,28.65,28.65,0,0,0-3.89,1.67,11.06,11.06,0,0,1-4,1.22,10.37,10.37,0,0,0,3,1.86,8.08,8.08,0,0,0,3.59.33C48.68,176.2,50.9,174.33,52.76,172.36Z"/><path class="cls-1" d="M43.18,159.67a9.48,9.48,0,0,0-.35,2.67,5,5,0,0,0,2.61,4.3,23.52,23.52,0,0,0,1.64-4.9c-1.08-.79-2.15-1.6-3.2-2.44Z"/><path class="cls-1" d="M39.83,166a27.43,27.43,0,0,0-4,1.21,11.32,11.32,0,0,1-4.1.83A8,8,0,0,0,38,170.87c2.45-.13,4.87-1.77,6.93-3.54A5.63,5.63,0,0,0,39.83,166Z"/><path class="cls-1" d="M31.22,146.64l-.27.56.29-.54Z"/><path class="cls-1" d="M26.35,152.65a22.46,22.46,0,0,0-4.17.36A11.68,11.68,0,0,1,18,153c1.21,1.89,3.08,3.73,5.5,4.1a7.4,7.4,0,0,0,2.2,0l2.22-4.15A9.92,9.92,0,0,0,26.35,152.65Z"/><path class="cls-1" d="M24.74,142.48a4.51,4.51,0,0,0,1.11,4.89,23.87,23.87,0,0,0,2.94-3.92c-.9-1.25-1.78-2.52-2.61-3.83A13.46,13.46,0,0,0,24.74,142.48Z"/><path class="cls-1" d="M25.14,147.88A6.14,6.14,0,0,0,20.75,145a22.38,22.38,0,0,0-4.19-.06,11.52,11.52,0,0,1-4.21-.43,8.78,8.78,0,0,0,5,4.66C19.77,149.79,22.61,149,25.14,147.88Z"/><path class="cls-1" d="M20.23,134.74a5.87,5.87,0,0,0-.49,2.72,4.27,4.27,0,0,0,1,2.28,23.83,23.83,0,0,0,3.31-3.56c-.77-1.33-1.49-2.69-2.18-4.07A13,13,0,0,0,20.23,134.74Z"/><path class="cls-1" d="M20,140.17a4.84,4.84,0,0,0-1.58-2A6.11,6.11,0,0,0,16,136.86a23,23,0,0,0-4.18-.48,11.55,11.55,0,0,1-4.15-.86,8.74,8.74,0,0,0,4.54,5.13C14.41,141.56,17.42,141,20,140.17Z"/><path class="cls-1" d="M20.36,57.4a5.1,5.1,0,0,0-3.81,3.37,29.06,29.06,0,0,0,4.28.57q1-2.13,2.08-4.18A11.15,11.15,0,0,0,20.36,57.4Z"/><path class="cls-1" d="M15.75,60.42a5.29,5.29,0,0,0,.37-5.15A22.61,22.61,0,0,0,14,51.61a10.54,10.54,0,0,1-1.63-3.75,7.7,7.7,0,0,0-1.51,6.65C11.45,56.83,13.57,58.81,15.75,60.42Z"/><path class="cls-1" d="M24.89,49.68a5.07,5.07,0,0,0-4.11,3,29.68,29.68,0,0,0,4.12,1c.8-1.34,1.65-2.66,2.53-3.95A10.3,10.3,0,0,0,24.89,49.68Z"/><path class="cls-1" d="M20,52.23a5.37,5.37,0,0,0,.89-5.11,28.15,28.15,0,0,0-1.7-3.83A10.57,10.57,0,0,1,18,39.39a10.2,10.2,0,0,0-1.89,2.91,7.55,7.55,0,0,0-.33,3.53C16.12,48.21,18,50.4,20,52.23Z"/><path class="cls-1" d="M30.13,42.47A5,5,0,0,0,25.85,45a28.4,28.4,0,0,0,3.93,1.4c.48-.64,1-1.26,1.46-1.88Z"/><path class="cls-1" d="M21.54,37.7c.13,2.41,1.8,4.79,3.6,6.82a5.39,5.39,0,0,0,1.38-5,25.67,25.67,0,0,0-1.23-3.95,11.4,11.4,0,0,1-.84-3.7l-.11-.21A7.59,7.59,0,0,0,21.54,37.7Z"/><path class="cls-1" d="M31.72,24.39c-.25.19-.49.39-.73.61l.67.36A6.24,6.24,0,0,1,31.72,24.39Z"/><path class="cls-1" d="M45.42,30.7a11.37,11.37,0,0,0-2.36-.81,5,5,0,0,0-2.69.13l3.51,1.88C44.39,31.5,44.9,31.09,45.42,30.7Z"/><path class="cls-1" d="M40.07,26.25a20.87,20.87,0,0,0-.37-4.09,10.87,10.87,0,0,1,0-4.14c-1.93,1.18-3.8,3-4.18,5.4a9,9,0,0,0,.64,4.36l2.95,1.57A7.22,7.22,0,0,0,40.07,26.25Z"/><path class="cls-1" d="M50.41,24.67a4.69,4.69,0,0,0-5,1.09,26.89,26.89,0,0,0,3.33,2.51c1.28-.88,2.6-1.73,3.93-2.54A11.81,11.81,0,0,0,50.41,24.67Z"/><path class="cls-1" d="M47.83,20.75a21,21,0,0,0,.06-4.13,11.09,11.09,0,0,1,.43-4.13,8.73,8.73,0,0,0-4.73,4.94c-.62,2.35.24,5.15,1.33,7.63A6,6,0,0,0,47.83,20.75Z"/><path class="cls-1" d="M58.28,20.24a6.06,6.06,0,0,0-2.76-.49,4.42,4.42,0,0,0-2.32,1,25.35,25.35,0,0,0,3.12,2.88q2.05-1.11,4.19-2.1A11.88,11.88,0,0,0,58.28,20.24Z"/><path class="cls-1" d="M54.82,18.48a5.79,5.79,0,0,0,1.3-2.41,20.73,20.73,0,0,0,.5-4.11,11.28,11.28,0,0,1,.86-4.09,8.87,8.87,0,0,0-5.21,4.47c-.93,2.17-.31,5.13.49,7.69A5.12,5.12,0,0,0,54.82,18.48Z"/><path class="cls-1" d="M66.57,16.63a4.78,4.78,0,0,0-5.12,0,26.26,26.26,0,0,0,2.89,3.28q2.16-.88,4.4-1.64A11.84,11.84,0,0,0,66.57,16.63Z"/><path class="cls-1" d="M64.87,12.26a21.8,21.8,0,0,0,.93-4,11.34,11.34,0,0,1,1.29-4,8.93,8.93,0,0,0-5.65,4c-1.17,2-.88,5-.35,7.66A6,6,0,0,0,64.87,12.26Z"/><path class="cls-1" d="M75.2,13.9c-1.61-1.07-3.61-1.46-5.1-.57a26.79,26.79,0,0,0,2.28,3.3c.11.14.23.26.34.39q2.27-.63,4.59-1.14A12.63,12.63,0,0,0,75.2,13.9Z"/><path class="cls-1" d="M74,9.38a21.83,21.83,0,0,0,1.36-4A11.41,11.41,0,0,1,77,1.59,9,9,0,0,0,71,5a7.61,7.61,0,0,0-1.2,3.45,20,20,0,0,0,0,4.09A5.81,5.81,0,0,0,74,9.38Z"/><path class="cls-1" d="M84.07,12.08a5.06,5.06,0,0,0-5-1.12,27.29,27.29,0,0,0,2.33,4.13c1.56-.26,3.13-.48,4.71-.65A12.56,12.56,0,0,0,84.07,12.08Z"/><path class="cls-1" d="M83.33,7.45A21.68,21.68,0,0,0,85.1,3.66,11.59,11.59,0,0,1,87.2,0a9.12,9.12,0,0,0-6.35,2.76c-1.55,1.83-2,4.59-2,7.36A5.62,5.62,0,0,0,83.33,7.45Z"/><path class="cls-1" d="M101.67,182.87a5.18,5.18,0,0,0,4.42-2.6,15.08,15.08,0,0,0,1.46-3.75l.09-.27c-1.5.24-3,.43-4.53.58A20.73,20.73,0,0,0,101.67,182.87Z"/><path class="cls-1" d="M109.71,188a22.6,22.6,0,0,0-2.87-3.1,5.44,5.44,0,0,0-5.08-1.18c.88,2.53,2.13,5.11,4.18,6.37a8.79,8.79,0,0,0,6.9.72A10.5,10.5,0,0,1,109.71,188Z"/><path class="cls-1" d="M110.83,181.44a5.18,5.18,0,0,0,4.13-3,15,15,0,0,0,1.05-3.87l0-.07c-1.49.4-3,.76-4.5,1.07A21.29,21.29,0,0,0,110.83,181.44Z"/><path class="cls-1" d="M116.19,182.94a5.45,5.45,0,0,0-5.18-.66c1.14,2.43,2.66,4.86,4.84,5.92a8.48,8.48,0,0,0,6.94,0,10,10,0,0,1-3.41-2.43A22.85,22.85,0,0,0,116.19,182.94Z"/><path class="cls-1" d="M119.78,179.06a5.07,5.07,0,0,0,3.79-3.4,14.48,14.48,0,0,0,.64-3.83c-1.45.55-2.91,1.07-4.39,1.54A22.49,22.49,0,0,0,119.78,179.06Z"/><path class="cls-1" d="M125.29,180a5.52,5.52,0,0,0-5.24-.15c1.4,2.3,3.18,4.57,5.46,5.4a7.81,7.81,0,0,0,3.56.38,9.33,9.33,0,0,0,1.76-.37,12,12,0,0,0,1.57-.77,10.06,10.06,0,0,1-3.64-2A22.84,22.84,0,0,0,125.29,180Z"/><path class="cls-1" d="M128.43,175.78a5,5,0,0,0,3.42-3.74,13.83,13.83,0,0,0,.23-3.72c-1.38.71-2.79,1.37-4.22,2A22.25,22.25,0,0,0,128.43,175.78Z"/><path class="cls-1" d="M134,176.2a5.53,5.53,0,0,0-5.23.36c1.63,2.15,3.65,4.23,6,4.83a8,8,0,0,0,6.75-1.48,11,11,0,0,1-3.81-1.61A23.56,23.56,0,0,0,134,176.2Z"/><path class="cls-1" d="M136.68,171.62a5,5,0,0,0,3-4,12.66,12.66,0,0,0-.17-3.6q-2,1.29-4,2.46A22.88,22.88,0,0,0,136.68,171.62Z"/><path class="cls-1" d="M142.31,171.49a5.6,5.6,0,0,0-5.19.87c1.86,2,4.08,3.84,6.5,4.21a8.08,8.08,0,0,0,3.59-.33,10.37,10.37,0,0,0,3-1.86,11.06,11.06,0,0,1-4-1.22A28.65,28.65,0,0,0,142.31,171.49Z"/><path class="cls-1" d="M142.79,161.74a23.57,23.57,0,0,0,1.65,4.9,5,5,0,0,0,2.61-4.3,9.86,9.86,0,0,0-.35-2.67l-.7-.37C145,160.14,143.88,161,142.79,161.74Z"/><path class="cls-1" d="M154.06,167.18a27.43,27.43,0,0,0-4-1.21,5.63,5.63,0,0,0-5.09,1.36c2.06,1.77,4.48,3.41,6.93,3.54a8,8,0,0,0,6.27-2.86A11.28,11.28,0,0,1,154.06,167.18Z"/><path class="cls-1" d="M158.92,147.2a5.77,5.77,0,0,0-.27-.56v0Z"/><path class="cls-1" d="M166.41,157.11c2.42-.37,4.29-2.21,5.5-4.1a11.68,11.68,0,0,1-4.21,0,22.61,22.61,0,0,0-4.17-.36,9.72,9.72,0,0,0-1.54.27l2.22,4.15A7.4,7.4,0,0,0,166.41,157.11Z"/><path class="cls-1" d="M164,147.37a4.49,4.49,0,0,0,1.1-4.89,13,13,0,0,0-1.43-2.86c-.84,1.31-1.71,2.58-2.62,3.83A24.53,24.53,0,0,0,164,147.37Z"/><path class="cls-1" d="M173.32,145a22.38,22.38,0,0,0-4.19.06,6.12,6.12,0,0,0-4.39,2.86c2.52,1.07,5.37,1.91,7.76,1.31a8.81,8.81,0,0,0,5-4.66A11.52,11.52,0,0,1,173.32,145Z"/><path class="cls-1" d="M169.1,139.74a4.27,4.27,0,0,0,1-2.28,5.76,5.76,0,0,0-.5-2.72,13.34,13.34,0,0,0-1.67-2.63q-1,2.07-2.18,4.07A23.83,23.83,0,0,0,169.1,139.74Z"/><path class="cls-1" d="M173.89,136.86a6.22,6.22,0,0,0-2.46,1.29,5,5,0,0,0-1.58,2c2.61.79,5.62,1.39,7.83.48a8.74,8.74,0,0,0,4.54-5.13,11.6,11.6,0,0,1-4.15.86A23,23,0,0,0,173.89,136.86Z"/><path class="cls-1" d="M173.33,60.77a5.1,5.1,0,0,0-3.81-3.37,11.15,11.15,0,0,0-2.55-.24c.73,1.37,1.43,2.76,2.08,4.18A29.06,29.06,0,0,0,173.33,60.77Z"/><path class="cls-1" d="M174.13,60.42c2.18-1.61,4.29-3.59,4.91-5.91a7.7,7.7,0,0,0-1.51-6.65,10.56,10.56,0,0,1-1.64,3.75,23.29,23.29,0,0,0-2.13,3.66A5.27,5.27,0,0,0,174.13,60.42Z"/><path class="cls-1" d="M169.1,52.66a5.07,5.07,0,0,0-4.11-3,10.3,10.3,0,0,0-2.54,0c.88,1.29,1.73,2.61,2.53,3.95A29.68,29.68,0,0,0,169.1,52.66Z"/><path class="cls-1" d="M170.66,43.29A29.37,29.37,0,0,0,169,47.12a5.37,5.37,0,0,0,.88,5.11c2-1.83,3.91-4,4.28-6.4a7.55,7.55,0,0,0-.33-3.53,10.2,10.2,0,0,0-1.89-2.91A10.59,10.59,0,0,1,170.66,43.29Z"/><path class="cls-1" d="M160.1,46.42A28.87,28.87,0,0,0,164,45a5,5,0,0,0-4.28-2.55l-1.11,2.07C159.13,45.16,159.62,45.78,160.1,46.42Z"/><path class="cls-1" d="M164.59,35.56a25.72,25.72,0,0,0-1.24,3.95,5.42,5.42,0,0,0,1.39,5c1.8-2,3.46-4.41,3.6-6.82a7.62,7.62,0,0,0-2.8-6.05l-.11.21A11.4,11.4,0,0,1,164.59,35.56Z"/><path class="cls-1" d="M158.16,24.39a7.77,7.77,0,0,1,.06,1l.67-.36C158.65,24.78,158.4,24.58,158.16,24.39Z"/><path class="cls-1" d="M149.51,30a5,5,0,0,0-2.69-.13,11.66,11.66,0,0,0-2.37.81c.52.39,1,.8,1.55,1.2Z"/><path class="cls-1" d="M154.34,23.42C154,21,152.1,19.2,150.17,18a10.87,10.87,0,0,1,0,4.14,20.13,20.13,0,0,0-.37,4.09,7.22,7.22,0,0,0,.95,3.1l3-1.57A9,9,0,0,0,154.34,23.42Z"/><path class="cls-1" d="M144.44,25.76a4.7,4.7,0,0,0-5-1.09,12.09,12.09,0,0,0-2.29,1.06q2,1.21,3.94,2.54A26.89,26.89,0,0,0,144.44,25.76Z"/><path class="cls-1" d="M142,16.62a21,21,0,0,0,.06,4.13A6,6,0,0,0,145,25.06c1.08-2.48,1.94-5.28,1.33-7.63a8.75,8.75,0,0,0-4.74-4.94A10.89,10.89,0,0,1,142,16.62Z"/><path class="cls-1" d="M136.68,20.78a4.42,4.42,0,0,0-2.32-1,6.06,6.06,0,0,0-2.76.49,11.28,11.28,0,0,0-2.23,1.32q2.13,1,4.19,2.1A25.35,25.35,0,0,0,136.68,20.78Z"/><path class="cls-1" d="M133.76,16.07a5.79,5.79,0,0,0,1.3,2.41A5.12,5.12,0,0,0,137.12,20c.8-2.56,1.41-5.52.49-7.69a8.87,8.87,0,0,0-5.21-4.47,11.28,11.28,0,0,1,.86,4.09A20.73,20.73,0,0,0,133.76,16.07Z"/><path class="cls-1" d="M128.43,16.62a4.78,4.78,0,0,0-5.12,0,11.84,11.84,0,0,0-2.17,1.63c1.49.5,3,1,4.4,1.64A26.26,26.26,0,0,0,128.43,16.62Z"/><path class="cls-1" d="M125,12.26a6,6,0,0,0,3.78,3.57c.53-2.65.82-5.63-.35-7.66a8.93,8.93,0,0,0-5.65-3.95,11.34,11.34,0,0,1,1.29,4A21.8,21.8,0,0,0,125,12.26Z"/><path class="cls-1" d="M117.5,16.63a27.93,27.93,0,0,0,2.28-3.3c-1.49-.89-3.49-.5-5.1.57a12.26,12.26,0,0,0-2.11,2c1.55.34,3.07.72,4.58,1.14Z"/><path class="cls-1" d="M115.9,9.38a5.83,5.83,0,0,0,4.15,3.13,20,20,0,0,0,0-4.09A7.73,7.73,0,0,0,118.88,5a9,9,0,0,0-6-3.38,11.23,11.23,0,0,1,1.71,3.84A21.82,21.82,0,0,0,115.9,9.38Z"/><path class="cls-1" d="M110.83,11a5.06,5.06,0,0,0-5,1.12,12.56,12.56,0,0,0-2,2.36c1.58.17,3.15.39,4.71.65A27.29,27.29,0,0,0,110.83,11Z"/><path class="cls-1" d="M106.54,7.45A5.64,5.64,0,0,0,111,10.12c0-2.77-.43-5.53-2-7.36A9.13,9.13,0,0,0,102.67,0a11.43,11.43,0,0,1,2.11,3.66A21.66,21.66,0,0,0,106.54,7.45Z"/><path class="cls-1" d="M166.31,124.31a76,76,0,0,1-10.12,17.79l2.45,4.56v0c.84-1,1.65-2.11,2.43-3.19.91-1.25,1.78-2.52,2.62-3.83.72-1.12,1.42-2.27,2.09-3.44q1.14-2,2.18-4.07a79.64,79.64,0,0,0,3.36-7.68h-.41C169.25,124.43,167.71,124.38,166.31,124.31Z"/><path class="cls-1" d="M23.42,67.25A76,76,0,0,1,33.69,49.1l-2.45-4.56c-.49.62-1,1.24-1.46,1.88-.81,1.07-1.6,2.16-2.35,3.28-.88,1.29-1.73,2.61-2.53,3.95-.7,1.15-1.36,2.32-2,3.51q-1.11,2.06-2.08,4.18Q19.59,64,18.54,66.78H19A19,19,0,0,1,23.42,67.25Z"/><path class="cls-1" d="M33.69,142.1a76,76,0,0,1-10.12-17.78c-1.4.07-2.93.11-4.62.11h-.41a82.27,82.27,0,0,0,3.37,7.68c.69,1.38,1.41,2.74,2.18,4.07.67,1.17,1.36,2.32,2.09,3.44.83,1.31,1.71,2.58,2.61,3.83.79,1.08,1.6,2.14,2.43,3.19l0,0Z"/><path class="cls-1" d="M48.44,34.35a76.95,76.95,0,0,1,93,0L146,31.9c-.51-.4-1-.81-1.55-1.2-1.09-.84-2.2-1.65-3.34-2.43q-1.94-1.32-3.94-2.54c-1.18-.72-2.39-1.41-3.61-2.07q-2.06-1.11-4.19-2.1c-1.26-.58-2.54-1.14-3.83-1.66-1.45-.59-2.91-1.14-4.4-1.64-1.31-.45-2.64-.86-4-1.24-1.51-.42-3-.8-4.58-1.14-1.34-.3-2.7-.56-4.07-.79-1.56-.26-3.13-.48-4.71-.65a81.83,81.83,0,0,0-17.7,0c-1.58.17-3.15.39-4.71.65-1.37.23-2.73.49-4.07.79Q75,16.39,72.72,17c-1.34.38-2.67.79-4,1.24q-2.23.75-4.4,1.64c-1.29.52-2.57,1.08-3.83,1.66q-2.13,1-4.19,2.1c-1.23.66-2.43,1.35-3.62,2.07s-2.65,1.66-3.93,2.54-2.25,1.59-3.35,2.43c-.52.39-1,.8-1.54,1.2Z"/><path class="cls-1" d="M141.44,156.85a76.91,76.91,0,0,1-93,0l-4.56,2.45c1,.84,2.12,1.65,3.2,2.44s2.16,1.52,3.26,2.24q2,1.29,4,2.46c1.14.65,2.3,1.28,3.47,1.88,1.38.71,2.79,1.37,4.22,2,1.2.53,2.42,1,3.65,1.51,1.44.55,2.91,1.07,4.39,1.54,1.25.4,2.51.77,3.79,1.11,1.48.4,3,.76,4.49,1.07,1.29.26,2.59.5,3.9.7,1.5.24,3,.43,4.52.58q4,.4,8.18.41a81.55,81.55,0,0,0,8.17-.41c1.52-.15,3-.34,4.53-.58,1.31-.2,2.61-.44,3.89-.7,1.52-.31,3-.67,4.5-1.07,1.27-.34,2.54-.71,3.79-1.11,1.48-.47,2.94-1,4.39-1.54,1.23-.48,2.45-1,3.65-1.51,1.43-.63,2.84-1.29,4.22-2,1.17-.6,2.33-1.23,3.47-1.88q2-1.17,4-2.46c1.1-.72,2.19-1.47,3.25-2.24s2.16-1.6,3.21-2.44Z"/><path class="cls-1" d="M156.19,49.1a76,76,0,0,1,10.27,18.15,18.94,18.94,0,0,1,4.46-.48h.42q-1.05-2.77-2.29-5.44c-.65-1.42-1.35-2.81-2.08-4.18-.63-1.19-1.3-2.36-2-3.51-.8-1.34-1.65-2.66-2.53-3.95-.76-1.12-1.54-2.21-2.35-3.28-.48-.64-1-1.26-1.46-1.88Z"/><path class="cls-1" d="M27.42,124a73.38,73.38,0,0,0,8.19,14.48l1.87-3.5A69.27,69.27,0,0,1,31,123.49C30,123.69,28.81,123.87,27.42,124Z"/><path class="cls-1" d="M35.54,52.57a73.23,73.23,0,0,0-8.78,16c.31.19.6.38.88.59a8.71,8.71,0,0,1,1.92,2,69.55,69.55,0,0,1,7.85-15.11Z"/><path class="cls-1" d="M134.5,38.06,138,36.19a73.29,73.29,0,0,0-86.11,0l3.49,1.87a69.83,69.83,0,0,1,79.13,0Z"/><path class="cls-1" d="M154.27,138.51A73.57,73.57,0,0,0,162.48,124c-1.38-.17-2.58-.36-3.61-.57A69.44,69.44,0,0,1,152.4,135Z"/><path class="cls-1" d="M152.46,56.06a69.16,69.16,0,0,1,7.86,15.11,8.71,8.71,0,0,1,1.92-2c.28-.21.57-.4.87-.59a73.19,73.19,0,0,0-8.77-16Z"/><path class="cls-1" d="M55.55,153l-3.49,1.88a73.3,73.3,0,0,0,85.76,0l-3.5-1.88a69.77,69.77,0,0,1-78.77,0Z"/><polygon class="cls-1" points="48.44 156.85 52.06 154.92 55.55 153.04 75.71 142.25 72.74 139.27 26.5 164.04 51.27 117.8 48.29 114.83 37.48 135.01 35.61 138.51 33.69 142.1 31.24 146.66 30.95 147.2 27.89 152.92 25.67 157.07 16.67 173.87 43.18 159.67 43.88 159.3 48.44 156.85"/><polygon class="cls-1" points="141.44 34.35 138 36.19 134.5 38.06 114.17 48.95 117.14 51.93 163.38 27.16 138.61 73.4 141.59 76.38 152.46 56.06 154.34 52.57 156.19 49.1 158.63 44.54 159.75 42.47 165.43 31.86 165.54 31.64 173.21 17.33 158.89 25 158.22 25.36 153.71 27.78 150.76 29.35 149.51 30.02 146 31.91 141.44 34.35"/><polygon class="cls-1" points="33.69 49.1 35.54 52.57 37.41 56.06 48.29 76.38 51.27 73.4 26.5 27.16 72.74 51.93 75.71 48.95 55.37 38.06 51.88 36.19 48.44 34.35 43.88 31.91 40.37 30.02 39.12 29.35 36.17 27.78 31.66 25.36 30.99 25 16.67 17.33 24.34 31.65 24.45 31.86 30.13 42.47 31.24 44.54 33.69 49.1"/><polygon class="cls-1" points="156.19 142.1 154.27 138.51 152.4 135.01 141.59 114.83 138.61 117.8 163.38 164.04 117.14 139.27 114.17 142.25 134.32 153.04 137.82 154.92 141.44 156.85 146 159.3 146.7 159.67 173.21 173.87 164.21 157.07 161.99 152.92 158.93 147.2 158.63 146.66 156.19 142.1"/><polygon class="cls-1" points="152.47 38.06 120.44 55.23 135.31 70.1 152.47 38.06"/><polygon class="cls-1" points="37.4 153.14 69.44 135.98 54.56 121.1 37.4 153.14"/><polygon class="cls-1" points="152.47 153.14 135.31 121.1 120.44 135.98 152.47 153.14"/><polygon class="cls-1" points="37.4 38.06 54.56 70.1 69.44 55.23 37.4 38.06"/><rect class="cls-1" x="97.14" y="60.25" width="10.62" height="10.62" transform="translate(-16.35 91.64) rotate(-45)"/><polygon class="cls-1" points="110.63 79.91 124.31 79.91 117.47 73.07 110.63 79.91"/><polygon class="cls-1" points="109.29 79.91 102.45 73.07 95.61 79.91 109.29 79.91"/><rect class="cls-1" x="82.12" y="60.25" width="10.62" height="10.62" transform="translate(-20.75 81.02) rotate(-45)"/><polygon class="cls-1" points="94.27 79.91 87.43 73.07 80.59 79.91 94.27 79.91"/><polygon class="cls-1" points="124.31 111.29 110.63 111.29 117.47 118.13 124.31 111.29"/><polygon class="cls-1" points="95.61 111.29 102.45 118.13 109.29 111.29 95.61 111.29"/><polygon class="cls-1" points="65.57 79.91 79.25 79.91 72.41 73.07 65.57 79.91"/><polygon class="cls-1" points="80.59 111.29 87.43 118.13 94.27 111.29 80.59 111.29"/><rect class="cls-1" x="97.14" y="120.33" width="10.62" height="10.62" transform="translate(-58.84 109.24) rotate(-45)"/><rect class="cls-1" x="82.12" y="120.33" width="10.62" height="10.62" transform="translate(-63.24 98.62) rotate(-45)"/><polygon class="cls-1" points="79.25 111.29 65.57 111.29 72.41 118.13 79.25 111.29"/><path class="cls-1" d="M125.65,111.29l6.84,6.84L125,125.64l-7.51-7.51L110,125.64l7.51,7.51L110,140.66l-7.51-7.51-7.51,7.51,7.51,7.51-7.51,7.51-7.51-7.51,7.51-7.51-7.51-7.51-7.51,7.51-7.51-7.51,7.51-7.51-7.51-7.51-7.51,7.51-7.51-7.51,6.84-6.84H44.75l3.54,3.54,3,3,3.29,3.3L69.44,136l3.3,3.29,3,3L92,158.58h0l2.9,2.89,19.23-19.22,3-3,3.3-3.29,14.88-14.88,3.29-3.3,3-3,3.53-3.54Zm-72.57,4.57-.19.2-.33-.33.21-.2a.7.7,0,0,0,.17-.24c0-.05,0-.09-.06-.14a.16.16,0,0,0-.17-.05.78.78,0,0,0-.22.16l-.8.8a.62.62,0,0,0-.16.22.15.15,0,0,0,0,.17c.07.08.16.07.27,0l.09-.07,0,0,.21-.21.33.33-.18.18a.93.93,0,0,1-.51.29.54.54,0,0,1-.48-.2.59.59,0,0,1-.23-.54,1.2,1.2,0,0,1,.36-.56l.57-.57a1,1,0,0,1,.67-.38.65.65,0,0,1,.45.24.55.55,0,0,1,.21.47A.84.84,0,0,1,53.08,115.86Zm6.09,9-.34-.34.17-.16a.39.39,0,0,1-.46-.09.45.45,0,0,1-.15-.31.61.61,0,0,1,.11-.3,1.94,1.94,0,0,1,.28-.32l.72-.73a1,1,0,0,1,.45-.27.44.44,0,0,1,.43.14.58.58,0,0,1,.11.18.34.34,0,0,1,0,.2l.44-.43.33.33Zm9.2,5.6a.93.93,0,0,1-.3.5l-.38.38-.61-.6-.34.35a.74.74,0,0,0-.21.27.17.17,0,0,0,.06.15q.06.08.12.06a.27.27,0,0,0,.14-.07l.16-.14.15-.16.33.33-.09.1a1.34,1.34,0,0,1-.39.3.42.42,0,0,1-.24.06.64.64,0,0,1-.44-.23.56.56,0,0,1-.18-.64,1.28,1.28,0,0,1,.32-.44l.66-.66c.36-.37.71-.39,1-.06A.57.57,0,0,1,68.37,130.42Zm5.13,8.77L75,137.71l-.15-.15.23-.22.15.14.09-.09a.43.43,0,0,1,.31-.15.44.44,0,0,1,.31.14,1.18,1.18,0,0,1,.19.25l-.2.2-.08-.09a.12.12,0,0,0-.2,0l-.09.08.19.19-.22.23-.19-.2-1.48,1.48Zm8.7,7.67a.63.63,0,0,1-1,0,1.09,1.09,0,0,1-.32-.58l.32-.08a.72.72,0,0,0,.19.37.29.29,0,0,0,.24.12.31.31,0,0,0,.22-.11l.14-.14a.29.29,0,0,1-.22,0,.52.52,0,0,1-.2-.13.41.41,0,0,1-.14-.41,1,1,0,0,1,.3-.45l.57-.57c.35-.36.65-.41.89-.18h0a.34.34,0,0,1,.07.43l.16-.16.33.34Zm8.4,6.62-1.4,1.39-.33-.33,1.36-1.37c.12-.11.13-.21,0-.3a.2.2,0,0,0-.18-.06.39.39,0,0,0-.2.12l-1.32,1.31-.33-.33,2.1-2.1.33.34-.53.52a.49.49,0,0,1,.27,0,.38.38,0,0,1,.25.13.42.42,0,0,1,.15.35A.64.64,0,0,1,90.6,153.48Zm8.82,1.26-.34-.34,1.69-1.69a.36.36,0,0,1-.19-.05.62.62,0,0,1-.19-.12l.24-.24a.69.69,0,0,0,.29.12.6.6,0,0,0,.32,0l.26.27Zm9.48-9.39a1.08,1.08,0,0,1-.31.51,1.29,1.29,0,0,1-.55.34l-.54.13a2.14,2.14,0,0,0-.74.25l.51.51-.25.25-.83-.84.12-.12a1.22,1.22,0,0,1,.38-.26,2.43,2.43,0,0,1,.54-.18l.24-.06.32-.06a1.1,1.1,0,0,0,.52-.32c.18-.18.23-.31.14-.39s-.15-.06-.27,0l-.17.15-.26.27-.33-.33.13-.13a1.8,1.8,0,0,1,.6-.44.48.48,0,0,1,.39,0,1.27,1.27,0,0,1,.2.16.45.45,0,0,1,.15.24A.46.46,0,0,1,108.9,145.35Zm6.6-6.8a.45.45,0,0,1,0,.36,1.25,1.25,0,0,1-.28.39,1,1,0,0,1-.58.34.61.61,0,0,1-.53-.22.58.58,0,0,1-.22-.5,1,1,0,0,1,.33-.55l.14-.14.32.32-.15.14a1,1,0,0,0-.2.27.16.16,0,0,0,.05.19.19.19,0,0,0,.21,0,1.11,1.11,0,0,0,.31-.25.88.88,0,0,0,.25-.33.22.22,0,0,0-.08-.24l-.1-.1.24-.24.1.09a.25.25,0,0,0,.24.09.79.79,0,0,0,.29-.2.73.73,0,0,0,.19-.27.17.17,0,0,0-.06-.18.16.16,0,0,0-.17,0,.66.66,0,0,0-.25.18l-.06.07-.33-.33.06-.07a.88.88,0,0,1,.53-.3.59.59,0,0,1,.49.22.63.63,0,0,1,.23.51.81.81,0,0,1-.29.53.85.85,0,0,1-.34.23A.42.42,0,0,1,115.5,138.55Zm7.28-6.76-.25.26-.18-.18-.36.37-.31-.3.37-.37-.55-.55.23-.23,2-1,.36.36-1.46,1.46Zm8.58-8.82-.52-.51-.42.42a.23.23,0,0,1,.16,0,.42.42,0,0,1,.16.11.38.38,0,0,1,.11.43,1.75,1.75,0,0,1-.43.58,3.91,3.91,0,0,1-.51.46.69.69,0,0,1-.28.13.56.56,0,0,1-.49-.22.54.54,0,0,1,0-.87l.26-.26.31.32-.22.23q-.15.14-.12.24s0,0,.06.08h0c.08.07.18,0,.32-.09l.53-.54a.55.55,0,0,0,.15-.19.15.15,0,0,0,0-.16c-.08-.08-.2-.06-.33.07l-.29-.31,1.06-1.06.83.83Zm7.33-7.22-.1.1-.32-.31,0,0a1.26,1.26,0,0,0,.23-.28.15.15,0,0,0,0-.18.18.18,0,0,0-.19-.05,1.33,1.33,0,0,0-.28.23l-.3.3a.48.48,0,0,1,.37.18.41.41,0,0,1,.14.43,1.41,1.41,0,0,1-.38.56l-.12.11a1.12,1.12,0,0,1-.55.35.62.62,0,0,1-.53-.24.59.59,0,0,1-.19-.69,1.38,1.38,0,0,1,.34-.46l.85-.85c.3-.3.57-.42.79-.35a.88.88,0,0,1,.35.23.59.59,0,0,1,.21.45A1,1,0,0,1,138.69,115.75Z"/><path class="cls-1" d="M64.23,79.91l-6.84-6.84,7.51-7.51,7.51,7.51,7.51-7.51-7.51-7.51,7.51-7.51,7.51,7.51,7.51-7.51L87.43,43l7.51-7.51L102.45,43l-7.51,7.51,7.51,7.51L110,50.54l7.51,7.51L110,65.56l7.51,7.51L125,65.56l7.51,7.51-6.84,6.84h19.47l-3.53-3.54-3-3-3.29-3.3L120.44,55.22l-3.3-3.29-3-3L97.83,32.62l-2.89-2.89L75.71,49l-3,3-3.3,3.29L54.56,70.1l-3.29,3.3-3,3-3.54,3.54Zm73.6-5.34.22-.23.15.15.1-.09a.39.39,0,0,1,.61,0,1,1,0,0,1,.2.25l-.2.2-.08-.1a.13.13,0,0,0-.21,0l-.08.08.19.2-.23.22-.19-.19-1.48,1.48-.33-.34L138,74.71Zm-8.69-6.49a1.62,1.62,0,0,1,.33-.44l.66-.66q.54-.54,1-.06a.57.57,0,0,1,.22.5,1,1,0,0,1-.31.51l-.38.38-.6-.6-.35.34a.85.85,0,0,0-.2.27.19.19,0,0,0,.05.16s.09.06.12,0a.34.34,0,0,0,.15-.06,2.09,2.09,0,0,0,.15-.15l.16-.15.33.33-.1.09a1.59,1.59,0,0,1-.38.31.69.69,0,0,1-.25.06.68.68,0,0,1-.43-.24A.55.55,0,0,1,129.14,68.08Zm-7.65-7.46a3.34,3.34,0,0,1,.28-.32l.72-.72a1,1,0,0,1,.45-.28.46.46,0,0,1,.43.15.34.34,0,0,1,.11.18.45.45,0,0,1,0,.2l.43-.44.34.34-2.1,2.1-.33-.34.16-.16a.38.38,0,0,1-.45-.09.39.39,0,0,1-.15-.31A.6.6,0,0,1,121.49,60.62Zm-5.34-8.71a.59.59,0,0,1,.2.47.9.9,0,0,1-.27.49l-.2.19-.32-.32.2-.21c.11-.11.17-.18.17-.23a.17.17,0,0,0-.06-.15.15.15,0,0,0-.17,0,.53.53,0,0,0-.21.16l-.8.8a.59.59,0,0,0-.17.22.17.17,0,0,0,0,.17c.08.07.17.07.28,0l.08-.08,0,0,.21-.21.32.32-.18.18a1,1,0,0,1-.5.3.59.59,0,0,1-.49-.21.58.58,0,0,1-.22-.54,1.08,1.08,0,0,1,.35-.55l.57-.58a1,1,0,0,1,.67-.38A.77.77,0,0,1,116.15,51.91Zm-7.87-8.16.34.34-.45.45a.27.27,0,0,1,.2,0,.33.33,0,0,1,.19.11.43.43,0,0,1,.12.52,1.27,1.27,0,0,1-.28.38l-.75.75h0c-.26.26-.48.36-.67.31a.41.41,0,0,1-.2-.12h0a.38.38,0,0,1-.08-.45l-.17.17-.33-.34Zm-9-6,.11-.11a.68.68,0,0,1,.48-.22,1.64,1.64,0,0,1,.44.14l.13.07.13.06.15-.16a.71.71,0,0,0,.18-.21s0-.1,0-.16-.11-.07-.16-.05a.53.53,0,0,0-.21.16l-.08.08-.33-.33,0-.06a.94.94,0,0,1,.48-.28.59.59,0,0,1,.49.22.69.69,0,0,1,.24.5,1,1,0,0,1-.29.51l-1.27,1.26-.34-.34.18-.17a.37.37,0,0,1-.23,0,.35.35,0,0,1-.23-.12.4.4,0,0,1-.15-.39A1.06,1.06,0,0,1,99.29,37.72Zm-10.52.2a1.94,1.94,0,0,0,.16-.16,1.23,1.23,0,0,1,.33-.23.57.57,0,0,1,.33-.05.7.7,0,0,1,.27-.62.8.8,0,0,1,.51-.29.72.72,0,0,1,.49.25.65.65,0,0,1,.24.48.75.75,0,0,1-.29.51.69.69,0,0,1-.62.28.49.49,0,0,1-.06.32,1,1,0,0,1-.24.33l-.14.15a.86.86,0,0,1-.53.28.63.63,0,0,1-.49-.22.69.69,0,0,1-.24-.5A.86.86,0,0,1,88.77,37.92Zm-7,7.54c.29-.16.54-.28.74-.37l.42-.19.19-.09.08,0-.63-.63.28-.28,1,1-.23.23a.7.7,0,0,1-.18.11l-.31.13a6.69,6.69,0,0,0-1.84,1.13l-.37-.37A5.11,5.11,0,0,1,81.75,45.46Zm-7,6.51c.3-.3.56-.42.79-.35a.93.93,0,0,1,.34.23.59.59,0,0,1,.21.45.87.87,0,0,1-.3.51l-.11.11-.32-.32,0,0a1.66,1.66,0,0,0,.23-.28.15.15,0,0,0,0-.17c-.07-.06-.13-.08-.19,0a.89.89,0,0,0-.29.23l-.3.29a.5.5,0,0,1,.38.18.41.41,0,0,1,.13.43,1.41,1.41,0,0,1-.38.56l-.11.11a1.21,1.21,0,0,1-.55.35.77.77,0,0,1-.73-.93,1.51,1.51,0,0,1,.34-.45Zm-8.53,8.62.26-.27.32.32-.23.23q-.15.15-.12.24l.06.08h0c.07.08.18,0,.31-.09l.54-.53a.67.67,0,0,0,.14-.2.13.13,0,0,0,0-.15c-.09-.09-.2-.07-.34.07L66.82,60l1.06-1.07.82.83-.28.28-.51-.51-.42.42a.28.28,0,0,1,.15,0,.45.45,0,0,1,.17.11.4.4,0,0,1,.11.43,1.8,1.8,0,0,1-.43.58,4.58,4.58,0,0,1-.51.46.65.65,0,0,1-.29.13.56.56,0,0,1-.49-.21A.54.54,0,0,1,66.19,60.59ZM58.8,67.85l2-1,.36.36-1.46,1.46.17.17-.25.26-.17-.17-.37.36-.3-.3.36-.37-.55-.55Zm-7.52,7.58.13-.14.32.32-.14.15a.77.77,0,0,0-.21.26.15.15,0,0,0,.06.19.17.17,0,0,0,.21.05A1.21,1.21,0,0,0,52,76a1,1,0,0,0,.24-.32.23.23,0,0,0-.08-.25l-.09-.1.24-.24.09.09a.25.25,0,0,0,.24.09.72.72,0,0,0,.29-.2.53.53,0,0,0,.19-.27.21.21,0,0,0-.23-.23.81.81,0,0,0-.25.19l-.06.06-.33-.33.07-.06a.89.89,0,0,1,.52-.31.61.61,0,0,1,.49.23.64.64,0,0,1,.24.5.88.88,0,0,1-.3.54.89.89,0,0,1-.34.23.42.42,0,0,1-.33,0,.45.45,0,0,1,0,.36,1.3,1.3,0,0,1-.28.39,1.13,1.13,0,0,1-.59.35.64.64,0,0,1-.53-.23.58.58,0,0,1-.22-.5A1.06,1.06,0,0,1,51.28,75.43Z"/><polygon class="cls-1" points="122.31 131.31 123.33 130.29 122.02 131.03 122.31 131.31"/><path class="cls-1" d="M137.43,115.81l-.37.37a.69.69,0,0,0-.19.26.2.2,0,0,0,.06.2.2.2,0,0,0,.18.07.85.85,0,0,0,.24-.18l.19-.2a.9.9,0,0,0,.22-.28.17.17,0,0,0,0-.18.29.29,0,0,0-.16-.09A.15.15,0,0,0,137.43,115.81Z"/><path class="cls-1" d="M60,122.76a1,1,0,0,0-.24.19l-.73.73a.86.86,0,0,0-.19.25.16.16,0,0,0,0,.18.15.15,0,0,0,.19,0,1.16,1.16,0,0,0,.27-.21l.71-.71c.14-.15.21-.26.19-.34a.14.14,0,0,0-.05-.09A.16.16,0,0,0,60,122.76Z"/><path class="cls-1" d="M90,37.7a.16.16,0,0,0,.1,0,.29.29,0,0,0,.15-.06,1.07,1.07,0,0,0,.23-.19,1,1,0,0,0,.18-.21.18.18,0,0,0,0-.13s0-.06-.06-.1l-.1-.06c-.07,0-.19.07-.35.23s-.24.28-.24.37a.16.16,0,0,0,0,.1Z"/><path class="cls-1" d="M107.08,46.14a1,1,0,0,0,.26-.22l.73-.72c.14-.14.21-.25.2-.32a.22.22,0,0,0,0-.08.17.17,0,0,0-.18-.06.53.53,0,0,0-.25.18l-.73.73a.66.66,0,0,0-.2.26.16.16,0,0,0,0,.19A.14.14,0,0,0,107.08,46.14Z"/><path class="cls-1" d="M89.17,38.73a.8.8,0,0,0,.24-.19l.17-.17c.22-.21.28-.37.18-.46s-.11,0-.19,0a1,1,0,0,0-.28.2l-.17.17a.85.85,0,0,0-.18.25c0,.06,0,.11.06.18A.15.15,0,0,0,89.17,38.73Z"/><path class="cls-1" d="M82.86,145a.83.83,0,0,0-.21.16l-.58.59a.73.73,0,0,0-.19.24.17.17,0,0,0,0,.18.16.16,0,0,0,.17,0,.77.77,0,0,0,.26-.19l.58-.58a.85.85,0,0,0,.16-.22.17.17,0,0,0,0-.18A.14.14,0,0,0,82.86,145Z"/><path class="cls-1" d="M67.91,130.16c-.09-.09-.2-.07-.33.05l-.1.09-.21.22.27.27.22-.23a1.29,1.29,0,0,0,.19-.23.16.16,0,0,0,0-.17Z"/><path class="cls-1" d="M130.76,67.56a.63.63,0,0,0,.18-.23.12.12,0,0,0,0-.16h0c-.08-.09-.19-.08-.33,0l-.09.09-.22.22.27.27Z"/><path class="cls-1" d="M99.66,38.48a.23.23,0,0,0,.14,0l.6-.6a.68.68,0,0,0-.34-.09.35.35,0,0,0-.24.12l-.19.19a.84.84,0,0,0-.15.21.13.13,0,0,0,0,.14A.17.17,0,0,0,99.66,38.48Z"/><path class="cls-1" d="M74.17,53.77a.61.61,0,0,0,.24-.18l.2-.19a1.17,1.17,0,0,0,.21-.28.14.14,0,0,0,0-.18.26.26,0,0,0-.15-.1.18.18,0,0,0-.13,0l-.38.38a.81.81,0,0,0-.19.25.19.19,0,0,0,.06.2A.2.2,0,0,0,74.17,53.77Z"/><polygon class="cls-1" points="60.4 67.35 59.08 68.09 59.37 68.38 60.4 67.35"/><path class="cls-1" d="M122.1,61.16a.88.88,0,0,0,.27-.22l.71-.71c.15-.14.21-.25.2-.33a.24.24,0,0,0-.06-.09.14.14,0,0,0-.18,0,1,1,0,0,0-.25.18l-.72.73a.71.71,0,0,0-.19.25.17.17,0,0,0,0,.19A.19.19,0,0,0,122.1,61.16Z"/><path class="cls-1" d="M185.32,107.74c-.3-.15-.7-.36-1-.54v-3c0-2.06-1.39-4.13-4.46-4.47a3.62,3.62,0,0,1-1.08-2.9,19.86,19.86,0,0,1,.24-3.34c2.84-.62,5.23-2.34,5.23-5.3a4.65,4.65,0,0,0-2.91-4.3,11.35,11.35,0,0,0,1.91-6.51c0-4.48-2-6.94-3.66-8.21-2-1.54-4.74-2.31-8.27-2.37h-.42a18.94,18.94,0,0,0-4.46.48,11.94,11.94,0,0,0-3.35,1.31c-.3.19-.59.38-.87.59a8.71,8.71,0,0,0-1.92,2,10.61,10.61,0,0,0-1.74,6.19,11.48,11.48,0,0,0,1.91,6.52,4.69,4.69,0,0,0-2.91,4.29c0,3,2.39,4.68,5.23,5.3a19.86,19.86,0,0,1,.24,3.34,3.62,3.62,0,0,1-1.08,2.9c-3.07.34-4.46,2.41-4.46,4.47v3c-.28.18-.68.39-1,.54-1.71.88-4.56,2.36-4.56,5.67v7.31l1.36.86a17.84,17.84,0,0,0,5.54,1.83c1,.21,2.23.4,3.61.57,1.15.13,2.42.25,3.83.33s2.94.12,4.61.12h.41c12.86-.05,16.65-2.37,17.51-3.08l1-.87v-7.07C189.88,110.1,187,108.62,185.32,107.74Zm-5.93-6.27a2.53,2.53,0,0,1-.43-.17,4,4,0,0,1-1-.73,4.5,4.5,0,0,1-1-1.47,5.38,5.38,0,0,1-.31-1,8.77,8.77,0,0,1-.12-1,12.7,12.7,0,0,1,.09-2,10.6,10.6,0,0,1,.32-1.69,7,7,0,0,1,.43-1.13,2.93,2.93,0,0,1,.24-.4,4,4,0,0,0-.1.44c-.06.28-.11.69-.16,1.17s-.08,1-.1,1.66c0,.3,0,.61,0,.93s0,.66,0,1a7,7,0,0,0,.09.92l.09.45.12.42a7,7,0,0,0,.32.78,5.58,5.58,0,0,0,.38.65A5.11,5.11,0,0,0,179.39,101.47Zm6.36,18.35a15.44,15.44,0,0,1-1.52.56,19.46,19.46,0,0,1-2,.52c-.76.16-1.58.31-2.46.43s-1.8.24-2.76.32-2,.14-3,.17-2,.05-3.06.08-2.05,0-3.07-.09-2-.11-3-.18a43.91,43.91,0,0,1-5.21-.8,22.26,22.26,0,0,1-3.57-1.07,7.5,7.5,0,0,1-1.26-.64h0v-5.71c0-2.94,5.54-3.17,5.54-5.54v-3.69c0-.81.52-1.63,2.49-1.63,0,0,3-1.36,3-5.74s-.91-6-.91-6-4.57-.14-4.57-2.67c0-2,3.28-2.23,4.59-2.23h.53V84.68a4.62,4.62,0,0,1-.47-.21,7,7,0,0,1-1.22-.82,7.51,7.51,0,0,1-1.53-1.71,8.52,8.52,0,0,1-1.16-2.8c-.05-.28-.11-.57-.15-.86s-.05-.56-.07-.84a10.88,10.88,0,0,1,.09-1.89c0-.32.12-.65.18-1s.21-.65.32-1a6.69,6.69,0,0,1,1.15-1.83,7.72,7.72,0,0,1,3.8-2.26,14.87,14.87,0,0,1,2.19-.43l1.12-.1,1.08,0a16.45,16.45,0,0,1,4.4.56,7.7,7.7,0,0,1,3.8,2.27,6.64,6.64,0,0,1,1.15,1.82c.11.33.23.66.31,1a8.9,8.9,0,0,1,.19,1c0,.33.09.67.09,1s0,.57,0,.91-.05.59-.08.88-.1.57-.15.84a8.17,8.17,0,0,1-1.15,2.79A7.6,7.6,0,0,1,178,83.65a7,7,0,0,1-1.22.82,4.62,4.62,0,0,1-.47.21,3.3,3.3,0,0,0,.43-.28,7.26,7.26,0,0,0,1.06-1A7.68,7.68,0,0,0,179,81.66a8.23,8.23,0,0,0,.82-2.66c0-.26.06-.51.07-.78v-.81l-.06-.85a7.38,7.38,0,0,0-.12-.84,6.06,6.06,0,0,0-1.53-3.1,6.76,6.76,0,0,0-3.24-1.78c-.3-.08-.62-.15-.94-.21,1.45,1.22,1.95,3.57,1.95,6.91a9,9,0,0,1-2.6,6.49l-7.42.65,6.44.57v.13l-6.44.57,6.91.61a3.22,3.22,0,0,1-.15,3.83l-7.36.48,7,.46A40.2,40.2,0,0,0,172,96.4a13.06,13.06,0,0,0,.24,2.38,21.75,21.75,0,0,1-.83-3.22,21.75,21.75,0,0,0,.2,6.63l-8.07.42,11.39.58a2,2,0,0,1,.67,1.53v3.34l-14.2.78,14.52.79c.77.94,2.69,1.48,2.69,3.48v3.29c-2.19.22-4.74.43-7.3.56-3.47.18-7,.23-9.58.19s-4.37-.12-4.37-.12,1.73.26,4.34.57,6.1.63,9.61.81c2.54.13,5.09.19,7.3.19v2.3c.37,0,.74-.05,1.09-.09.87-.08,1.69-.19,2.44-.31a22.65,22.65,0,0,0,3.59-.81,5.65,5.65,0,0,0,1.28-.57A5,5,0,0,1,185.75,119.82ZM188,114.7c0,.82-.06,1.59-.11,2.24s-.1,1.2-.13,1.58-.07.6-.07.6,0-.22-.07-.6-.1-.92-.14-1.58-.09-1.42-.11-2.24q0-.61,0-1.26a3.26,3.26,0,0,0-.1-.57,1.8,1.8,0,0,0-.23-.46,3.35,3.35,0,0,0-.81-.83c-.34-.23-.68-.46-1-.66a18.32,18.32,0,0,1-1.92-1.18c-.13-.11-.26-.2-.38-.31l-.3-.32a2,2,0,0,1-.35-.64,1,1,0,0,1-.07-.45v-.15l0,.15a1.1,1.1,0,0,0,.16.4,1.77,1.77,0,0,0,.41.5,4.73,4.73,0,0,0,.72.47c.55.31,1.25.6,2,1a12,12,0,0,1,1.13.65,4,4,0,0,1,1,1,2.5,2.5,0,0,1,.32.72,4.91,4.91,0,0,1,.1.7Z"/><path class="cls-1" d="M172.61,82.47l0,.5.3-.4c.16-.27.39-.65.64-1.14s.42-1.09.63-1.74a19,19,0,0,0,.35-2.09,21,21,0,0,0-.07-2.12,18.28,18.28,0,0,0-.4-1.8c-.18-.52-.36-.93-.49-1.22L173.3,72l0,.49c0,.31,0,.75,0,1.27s0,1.12-.06,1.75a19.19,19.19,0,0,1-.11,2c0,.67-.07,1.34-.15,2s-.09,1.23-.17,1.74S172.65,82.17,172.61,82.47Z"/><path class="cls-1" d="M159.77,113.75c.81.16,1.76.32,2.78.48s2.13.2,3.24.27,2.2,0,3.24,0,2-.2,2.81-.31,1.5-.28,2-.39l.74-.19-.76-.09c-.48,0-1.17-.07-2-.14s-1.77-.07-2.78-.14-2.11-.07-3.19-.13-2.16,0-3.18-.08-2,0-2.79,0-1.51,0-2,0l-.76,0,.73.24C158.29,113.36,159,113.55,159.77,113.75Z"/><path class="cls-1" d="M163.5,81a12.94,12.94,0,0,1-.45-1.94,10.32,10.32,0,0,1,.39-4.46,11.72,11.72,0,0,1,.77-1.83,9.81,9.81,0,0,1,.76-1.21c.19-.29.32-.45.32-.45s-.16.12-.43.35a7.07,7.07,0,0,0-1,1.09,8.14,8.14,0,0,0-1,1.84,9.37,9.37,0,0,0-.57,2.36,9.64,9.64,0,0,0,.16,2.42,8.48,8.48,0,0,0,.69,2,7.51,7.51,0,0,0,.79,1.24c.22.28.36.43.36.43s-.1-.18-.24-.5A12.4,12.4,0,0,1,163.5,81Z"/><path class="cls-1" d="M23.57,124.32c1.43-.07,2.7-.17,3.85-.29,1.39-.16,2.59-.34,3.62-.54,3.79-.74,5.32-1.72,5.83-2.14l1-.87v-7.07c0-3.31-2.85-4.79-4.56-5.67-.3-.15-.7-.36-1-.54v-3c0-2.06-1.39-4.13-4.47-4.47a3.66,3.66,0,0,1-1.08-2.9,19.63,19.63,0,0,1,.25-3.34c2.84-.62,5.23-2.34,5.23-5.3a4.65,4.65,0,0,0-2.91-4.3,11.35,11.35,0,0,0,1.91-6.51,10.61,10.61,0,0,0-1.74-6.19,8.71,8.71,0,0,0-1.92-2c-.28-.21-.57-.4-.88-.59a11.76,11.76,0,0,0-3.34-1.31A19,19,0,0,0,19,66.77h-.41c-3.53.06-6.24.83-8.27,2.37C8.6,70.42,6.6,72.88,6.6,77.36a11.48,11.48,0,0,0,1.92,6.52,4.69,4.69,0,0,0-2.91,4.29c0,3,2.38,4.68,5.23,5.3a19.86,19.86,0,0,1,.24,3.34A3.62,3.62,0,0,1,10,99.71c-3.07.34-4.46,2.41-4.46,4.47v3c-.28.18-.69.39-1,.54C2.85,108.62,0,110.1,0,113.41v7.31l1.36.86c.46.28,4.82,2.79,17.18,2.85H19C20.64,124.43,22.17,124.39,23.57,124.32ZM30.24,108a1,1,0,0,0,.16.4,1.77,1.77,0,0,0,.41.5,4.73,4.73,0,0,0,.72.47c.55.31,1.25.6,2,1a10,10,0,0,1,1.13.65,3.88,3.88,0,0,1,1,1,2.27,2.27,0,0,1,.33.72,4.91,4.91,0,0,1,.1.7c0,.43,0,.85,0,1.26,0,.82-.06,1.59-.11,2.24s-.1,1.2-.13,1.58-.07.6-.07.6,0-.22-.07-.6-.1-.92-.14-1.58-.09-1.42-.11-2.24q0-.61,0-1.26a4.58,4.58,0,0,0-.1-.57,1.8,1.8,0,0,0-.23-.46,3.54,3.54,0,0,0-.81-.83c-.34-.23-.68-.46-1-.66a18.32,18.32,0,0,1-1.92-1.18c-.13-.11-.26-.2-.38-.31l-.3-.32a2,2,0,0,1-.35-.64,1,1,0,0,1-.07-.45v-.15Zm-2.82-6.55a2.53,2.53,0,0,1-.43-.17,4,4,0,0,1-1-.73,4.67,4.67,0,0,1-1-1.47,6.29,6.29,0,0,1-.3-1,8.77,8.77,0,0,1-.12-1,12.7,12.7,0,0,1,.09-2A10.6,10.6,0,0,1,25,93.45a6.14,6.14,0,0,1,.43-1.13,2.93,2.93,0,0,1,.24-.4,4,4,0,0,0-.1.44c-.06.28-.11.69-.16,1.17s-.08,1-.1,1.66c0,.3,0,.61,0,.93s0,.66,0,1a7,7,0,0,0,.09.92l.09.45.12.42a7,7,0,0,0,.32.78,5.58,5.58,0,0,0,.38.65A5.11,5.11,0,0,0,27.42,101.47ZM15.9,121.81c-1,0-2-.11-3-.18a43.91,43.91,0,0,1-5.21-.8,22.26,22.26,0,0,1-3.57-1.07,7.5,7.5,0,0,1-1.26-.64h0v-5.71c0-2.94,5.54-3.17,5.54-5.54v-3.69c0-.81.52-1.63,2.48-1.63,0,0,3.06-1.36,3.06-5.74s-.91-6-.91-6S8.5,90.7,8.5,88.17c0-2,3.28-2.23,4.58-2.23h.54V84.68a4.62,4.62,0,0,1-.47-.21,7,7,0,0,1-1.22-.82,7.51,7.51,0,0,1-1.53-1.71,8.31,8.31,0,0,1-1.16-2.8c-.05-.28-.11-.57-.15-.86S9,77.72,9,77.44a10.88,10.88,0,0,1,.09-1.89,8.82,8.82,0,0,1,.18-1c.08-.32.21-.65.32-1a6.69,6.69,0,0,1,1.15-1.83,7.72,7.72,0,0,1,3.8-2.26,14.87,14.87,0,0,1,2.19-.43l1.12-.1,1.08,0a16.45,16.45,0,0,1,4.4.56,7.7,7.7,0,0,1,3.8,2.27,6.64,6.64,0,0,1,1.15,1.82c.11.33.23.66.31,1s.16.65.19,1,.08.67.08,1,0,.57,0,.91-.05.59-.08.88-.1.57-.15.84a8.17,8.17,0,0,1-1.15,2.79A7.6,7.6,0,0,1,26,83.65a7,7,0,0,1-1.22.82,4.62,4.62,0,0,1-.47.21,3.3,3.3,0,0,0,.43-.28,7.26,7.26,0,0,0,1.06-1A7.68,7.68,0,0,0,27,81.66,8.48,8.48,0,0,0,27.85,79c0-.26.06-.51.07-.78v-.81l-.06-.85c0-.3-.08-.56-.12-.84a6.06,6.06,0,0,0-1.53-3.1A6.81,6.81,0,0,0,23,70.84c-.31-.08-.62-.15-.94-.21C23.48,71.85,24,74.2,24,77.54A9,9,0,0,1,21.38,84L14,84.68l6.44.57v.13L14,86l6.91.61a3.22,3.22,0,0,1-.15,3.83l-7.36.48,7,.46A40.2,40.2,0,0,0,20,96.4a13.06,13.06,0,0,0,.24,2.38,21.75,21.75,0,0,1-.83-3.22,21.75,21.75,0,0,0,.2,6.63l-8.07.42,11.39.58a2,2,0,0,1,.67,1.53v3.34l-14.2.78,14.52.79c.77.94,2.69,1.48,2.69,3.48v3.29c-2.19.22-4.74.43-7.3.56-3.48.18-7,.23-9.58.19S5.36,117,5.36,117s1.73.26,4.34.57,6.1.63,9.61.81c2.54.13,5.09.19,7.3.19v2.3c.37,0,.74-.05,1.09-.09.87-.08,1.69-.19,2.44-.31a22.65,22.65,0,0,0,3.59-.81,5.65,5.65,0,0,0,1.28-.57,5,5,0,0,1-1.23.7,15.44,15.44,0,0,1-1.52.56,19.46,19.46,0,0,1-2,.52c-.76.16-1.58.31-2.46.43s-1.8.24-2.76.32-2,.14-3,.17-2,.05-3.06.08S16.92,121.87,15.9,121.81Z"/><path class="cls-1" d="M21.26,73.79c0,.52,0,1.12-.06,1.75a19.19,19.19,0,0,1-.11,2c0,.67-.07,1.34-.15,2s-.09,1.23-.17,1.74-.09,1-.13,1.26,0,.5,0,.5l.3-.4c.16-.27.39-.65.64-1.14s.42-1.09.63-1.74a19,19,0,0,0,.35-2.09c0-.72,0-1.44-.07-2.12a18.28,18.28,0,0,0-.4-1.8c-.18-.52-.36-.93-.49-1.22L21.33,72l0,.49C21.3,72.83,21.3,73.27,21.26,73.79Z"/><path class="cls-1" d="M7.79,113.75c.82.16,1.77.32,2.79.48s2.13.2,3.24.27,2.2,0,3.24,0,2-.2,2.81-.31,1.5-.28,2-.39l.74-.19-.76-.09c-.48,0-1.17-.07-2-.14s-1.77-.07-2.78-.14-2.11-.07-3.19-.13-2.17,0-3.18-.08-2,0-2.79,0-1.51,0-2,0l-.76,0,.72.24C6.32,113.36,7,113.55,7.79,113.75Z"/><path class="cls-1" d="M11.9,72.54a8.14,8.14,0,0,0-1,1.84,9.37,9.37,0,0,0-.57,2.36,9.64,9.64,0,0,0,.16,2.42,8.48,8.48,0,0,0,.69,2A7.51,7.51,0,0,0,12,82.38c.22.28.36.43.36.43s-.1-.18-.24-.5A12.4,12.4,0,0,1,11.53,81a12.94,12.94,0,0,1-.45-1.94,10.32,10.32,0,0,1,.39-4.46,10.83,10.83,0,0,1,.77-1.83A11.38,11.38,0,0,1,13,71.55c.2-.29.33-.45.33-.45s-.16.12-.43.35A7.07,7.07,0,0,0,11.9,72.54Z"/><text class="cls-2" transform="translate(34.98 100.94)">RAN<tspan class="cls-3" x="41.44" y="0">Q</tspan><tspan class="cls-4" x="55.54" y="0">UEADO</tspan></text></g></g></svg>