<svg xmlns="http://www.w3.org/2000/svg" xmlns:xlink="http://www.w3.org/1999/xlink" viewBox="0 0 195.99 141.98"><defs><style>.cls-1{fill:#1a1a1a;}.cls-2{fill:url(#linear-gradient);}.cls-3{fill:url(#linear-gradient-2);}.cls-4{fill:url(#linear-gradient-3);}.cls-5{fill:url(#linear-gradient-4);}.cls-6{fill:url(#linear-gradient-5);}.cls-7{fill:url(#linear-gradient-6);}.cls-8{fill:url(#linear-gradient-7);}</style><linearGradient id="linear-gradient" x1="24.68" y1="146.67" x2="171.01" y2="0.34" gradientUnits="userSpaceOnUse"><stop offset="0" stop-color="#eedebc"/><stop offset="0.06" stop-color="#ddc6a3"/><stop offset="0.14" stop-color="#c9a885"/><stop offset="0.26" stop-color="#9a7a5f"/><stop offset="0.36" stop-color="#c9a885"/><stop offset="0.49" stop-color="#eedebc"/><stop offset="0.54" stop-color="#ddc6a3"/><stop offset="0.61" stop-color="#c9a885"/><stop offset="0.72" stop-color="#9a7a5f"/><stop offset="0.84" stop-color="#c9a885"/><stop offset="1" stop-color="#eedebc"/></linearGradient><linearGradient id="linear-gradient-2" x1="86.45" y1="44.12" x2="107.38" y2="23.19" xlink:href="#linear-gradient"/><linearGradient id="linear-gradient-3" x1="90.23" y1="40.35" x2="103.61" y2="26.97" xlink:href="#linear-gradient"/><linearGradient id="linear-gradient-4" x1="42.11" y1="52.96" x2="55.46" y2="39.61" xlink:href="#linear-gradient"/><linearGradient id="linear-gradient-5" x1="44.71" y1="50.36" x2="52.86" y2="42.21" xlink:href="#linear-gradient"/><linearGradient id="linear-gradient-6" x1="135.68" y1="57.84" x2="158.78" y2="34.73" xlink:href="#linear-gradient"/><linearGradient id="linear-gradient-7" x1="140.11" y1="53.41" x2="154.35" y2="39.17" xlink:href="#linear-gradient"/></defs><title>Ativo 3</title><g id="Camada_2" data-name="Camada 2"><g id="Object"><path class="cls-1" d="M24.23,109.38c-5.13-5.57-8.41-13.74-9.61-24.09a82.54,82.54,0,0,1,.17-19.81A1,1,0,0,1,15,65l-2.83-6.53a1,1,0,0,1,.43-1.28c2.8-1.55,10.08-6.37,10.19-9.93a2.89,2.89,0,0,0-1.66-2.49c-6-3.84-14.71-12.2-18.71-16.17l12.19,83C16.2,110.91,19.06,110.14,24.23,109.38Z"/><path class="cls-1" d="M182,65.48a83.46,83.46,0,0,1,.16,19.81c-1.21,10.48-4.56,18.73-9.79,24.3,5.22.85,7.76,1.69,9,2.43l12.24-83.43c-4,4-12.71,12.33-18.71,16.17a2.91,2.91,0,0,0-1.66,2.49c.11,3.56,7.4,8.38,10.19,9.93a1,1,0,0,1,.44,1.28l-2.69,6.18A1,1,0,0,1,182,65.48Z"/><path class="cls-1" d="M98,102.12c-1.65,1.3-3.43,2.53-5.28,3.71h10.56C101.43,104.65,99.65,103.42,98,102.12Z"/><path class="cls-1" d="M73.32,41.6c11.12,7.07,19.37,14,24.68,20.63,5.3-6.65,13.55-13.56,24.67-20.63A331,331,0,0,0,98,2.65,330.57,330.57,0,0,0,73.32,41.6ZM108,33.66c0,11.07-10,19.84-10.45,20.21a1,1,0,0,1-1.31,0c-.42-.37-10.45-9.14-10.45-20.21s10-19.84,10.45-20.21a1,1,0,0,1,1.31,0C98,13.82,108,22.59,108,33.66Z"/><path class="cls-1" d="M77.73,106c3.65-.07,7.38-.12,11.16-.16a79.31,79.31,0,0,0,7.52-5,25.7,25.7,0,0,1-5.63-6.61c-4-7.16-2.85-15.76,3.78-27,.64-1.09,1.38-2.19,2.18-3.29-15.28-19.49-53.69-36.52-61-39.65a270.2,270.2,0,0,0-1.07,41.94,74.61,74.61,0,0,1,18.85,7.61C67.05,81.46,74.28,96.29,77.73,106ZM40.84,51c-4.63-7.84-1.2-18.22-1.06-18.65a1,1,0,0,1,1.13-.67c.45.08,11.19,2.1,15.82,9.94s1.2,18.21,1.05,18.65a1,1,0,0,1-.94.68l-.18,0C56.2,60.83,45.46,58.82,40.84,51Z"/><path class="cls-1" d="M96.28,68.17c-6.23,10.62-7.43,18.58-3.76,25.06,2.86,5,8.55,9,14.6,12.63q6,.06,11.87.18c3.45-9.72,10.67-24.57,24.26-32.27a74.72,74.72,0,0,1,18.1-7.42,270.44,270.44,0,0,0-1.06-42.13C152.4,27.58,108.75,46.94,96.28,68.17ZM155.18,51c-4.63,7.84-15.37,9.85-15.83,9.93l-.17,0a1,1,0,0,1-1-.68c-.15-.44-3.57-10.82,1.05-18.65s15.37-9.86,15.83-9.94a1,1,0,0,1,1.12.67C156.38,32.76,159.8,43.14,155.18,51Z"/><path class="cls-1" d="M106,33.66c0-8.6-6.92-16-9.1-18.08-2.19,2.11-9.11,9.49-9.11,18.08s6.92,16,9.11,18.08C99.1,49.63,106,42.25,106,33.66Zm-9.1,13.13a.5.5,0,0,1-.33-.12c-.27-.24-6.73-5.89-6.73-13s6.46-12.77,6.73-13a.5.5,0,0,1,.65,0c.28.24,6.74,5.89,6.74,13s-6.46,12.77-6.74,13A.49.49,0,0,1,96.92,46.79Z"/><path class="cls-1" d="M103,33.66c0-5.77-4.76-10.71-6.06-11.95-1.31,1.24-6.06,6.18-6.06,11.95s4.75,10.71,6.06,12C98.22,44.37,103,39.44,103,33.66Z"/><path class="cls-1" d="M16.67,66.53c-.56,4.68-2.89,30,10,42.51,3.1-.4,6.87-.8,11.48-1.18,10.56-.88,23.44-1.49,37.48-1.8C72.2,96.62,65.24,82.74,52.5,75.51,34.82,65.49,20.06,66.2,16.67,66.53Z"/><path class="cls-1" d="M144.24,75.51c-12.77,7.24-19.72,21.15-23.15,30.58,13.43.33,25.74.92,35.9,1.77,5.34.44,9.55.9,12.89,1.37,13.11-12.44,10.75-38,10.19-42.7C176.67,66.2,161.91,65.49,144.24,75.51Z"/><path class="cls-1" d="M42.56,50c3.44,5.83,11,8.15,13.58,8.79.68-2.56,2.31-10.31-1.13-16.14s-11-8.14-13.58-8.78C40.74,36.39,39.12,44.14,42.56,50Zm.73-12.34a.49.49,0,0,1,.56-.33c.28.05,6.93,1.29,9.78,6.13s.74,11.27.65,11.54a.51.51,0,0,1-.47.34h-.09c-.28,0-6.93-1.3-9.79-6.14S43.19,37.89,43.29,37.62Z"/><path class="cls-1" d="M44.79,48.64C47,52.42,52,53.85,53.46,54.21c.41-1.48,1.54-6.51-.69-10.28s-7.17-5.2-8.66-5.56C43.7,39.85,42.57,44.88,44.79,48.64Z"/><path class="cls-1" d="M180.62,114.26a.77.77,0,0,1-.12-.36c-2-2.57-31.73-6.08-82.93-6.08-50.68,0-80.32,3.44-82.85,6a1,1,0,0,1,.06.33v17.69c2.67-1.17,8.91-2.53,23.5-3.74,15.88-1.31,37-2,59.42-2s43.54.73,59.42,2c14.59,1.21,20.83,2.57,23.5,3.74Z"/><path class="cls-1" d="M180.51,134c-2.82-2.55-32.41-6-82.81-6s-80,3.41-82.81,6c2.82,2.55,32.42,6,82.81,6S177.69,136.57,180.51,134Z"/><path class="cls-1" d="M154.59,33.83c-2.57.64-10.15,3-13.58,8.78s-1.82,13.58-1.14,16.14c2.58-.64,10.15-3,13.59-8.79S155.27,36.39,154.59,33.83ZM142.3,55.29h-.09a.52.52,0,0,1-.48-.34c-.09-.27-2.21-6.69.65-11.54s9.5-6.08,9.79-6.13a.5.5,0,0,1,.56.33c.09.27,2.21,6.69-.65,11.53S142.58,55.24,142.3,55.29Z"/><path class="cls-1" d="M151.91,38.37c-1.5.36-6.45,1.8-8.67,5.56s-1.09,8.8-.69,10.28c1.5-.36,6.45-1.8,8.67-5.57S152.32,39.85,151.91,38.37Z"/><path class="cls-2" d="M195.44,24.84a1,1,0,0,0-1.16.2c-.13.13-12.86,13.14-20.51,18a4.82,4.82,0,0,0-2.58,4.24c.15,4.67,7.79,9.6,10.44,11.17l-2.59,6a55.56,55.56,0,0,0-15.62,1.42q.35-5.85.37-12.37a277.56,277.56,0,0,0-1.66-30.83,1,1,0,0,0-.49-.74,1,1,0,0,0-.88-.06A276.45,276.45,0,0,0,133,35.42q-4.56,2.56-8.63,5.1c-1.61-3-3.34-6.13-5.21-9.33A334.05,334.05,0,0,0,98.79.37a1,1,0,0,0-1.59,0A334.05,334.05,0,0,0,76.8,31.19c-1.87,3.2-3.59,6.3-5.21,9.33C68.87,38.83,66,37.13,63,35.42A276.45,276.45,0,0,0,35.23,21.85a1,1,0,0,0-.88.06,1,1,0,0,0-.49.74A283.43,283.43,0,0,0,32.2,53.48c0,4.29.14,8.35.36,12.2A54.3,54.3,0,0,0,17,64.48l-2.6-6C17,56.91,24.65,52,24.8,47.31a4.82,4.82,0,0,0-2.58-4.24c-7.65-4.89-20.38-17.9-20.5-18A1,1,0,0,0,0,25.88L12.8,113a1.62,1.62,0,0,0-.14.76,1.67,1.67,0,0,0,.12.62V134c0,1.23,0,3.8,25.5,5.92,15.88,1.31,37,2,59.42,2s43.54-.73,59.42-2c25.5-2.12,25.5-4.69,25.5-5.92V114.29a1,1,0,0,0,.49-.72L196,25.88A1,1,0,0,0,195.44,24.84ZM21.14,44.76a2.89,2.89,0,0,1,1.66,2.49c-.11,3.56-7.39,8.38-10.19,9.93a1,1,0,0,0-.43,1.28L15,65a1,1,0,0,0-.22.49,82.54,82.54,0,0,0-.17,19.81c1.2,10.35,4.48,18.52,9.61,24.09-5.17.76-8,1.53-9.61,2.24l-12.19-83C6.43,32.56,15.15,40.92,21.14,44.76ZM35.7,24.22c7.35,3.13,45.76,20.16,61,39.65-.8,1.1-1.54,2.2-2.18,3.29-6.63,11.29-7.83,19.89-3.78,27.05a25.7,25.7,0,0,0,5.63,6.61,79.31,79.31,0,0,1-7.52,5c-3.78,0-7.51.09-11.16.16-3.45-9.72-10.68-24.55-24.25-32.24a74.61,74.61,0,0,0-18.85-7.61A270.2,270.2,0,0,1,35.7,24.22ZM161.35,66.35a74.72,74.72,0,0,0-18.1,7.42C129.66,81.47,122.44,96.32,119,106q-5.82-.12-11.87-.18c-6.05-3.65-11.74-7.58-14.6-12.63-3.67-6.48-2.47-14.44,3.76-25.06,12.47-21.23,56.12-40.59,64-43.95A270.44,270.44,0,0,1,161.35,66.35Zm22.47-7.89a1,1,0,0,0-.44-1.28c-2.79-1.55-10.08-6.37-10.19-9.93a2.91,2.91,0,0,1,1.66-2.49c6-3.84,14.71-12.2,18.71-16.17L181.32,112c-1.24-.74-3.78-1.58-9-2.43,5.23-5.57,8.58-13.82,9.79-24.3A83.46,83.46,0,0,0,182,65.48a1,1,0,0,0-.82-.84Zm-26.7,69.64c-15.88-1.31-37-2-59.42-2s-43.54.73-59.42,2c-14.59,1.21-20.83,2.57-23.5,3.74V114.15a1,1,0,0,0-.06-.33c2.53-2.56,32.17-6,82.85-6,51.2,0,80.93,3.51,82.93,6.08a.77.77,0,0,0,.12.36v17.58C178,130.67,171.71,129.31,157.12,128.1Zm-64.4-22.27c1.85-1.18,3.63-2.41,5.28-3.71,1.65,1.3,3.43,2.53,5.28,3.71H92.72Zm87.35-39.3c.56,4.7,2.92,30.26-10.19,42.7-3.34-.47-7.55-.93-12.89-1.37-10.16-.85-22.47-1.44-35.9-1.77,3.43-9.43,10.38-23.34,23.15-30.58C161.91,65.49,176.67,66.2,180.07,66.53ZM98,62.23C92.69,55.58,84.44,48.67,73.32,41.6A330.57,330.57,0,0,1,98,2.65a331,331,0,0,1,24.67,39C111.55,48.67,103.3,55.58,98,62.23ZM52.5,75.51c12.74,7.23,19.7,21.11,23.13,30.55-14,.31-26.92.92-37.48,1.8-4.61.38-8.38.78-11.48,1.18-12.89-12.5-10.56-37.83-10-42.51C20.06,66.2,34.82,65.49,52.5,75.51ZM14.89,134c2.82-2.55,32.41-6,82.81-6s80,3.41,82.81,6c-2.82,2.55-32.41,6-82.81,6S17.71,136.57,14.89,134Z"/><path class="cls-3" d="M96.26,13.45c-.42.37-10.45,9.14-10.45,20.21s10,19.84,10.45,20.21a1,1,0,0,0,1.31,0C98,53.5,108,44.73,108,33.66S98,13.82,97.57,13.45A1,1,0,0,0,96.26,13.45ZM87.81,33.66c0-8.59,6.92-16,9.11-18.08,2.18,2.11,9.1,9.48,9.1,18.08s-6.92,16-9.1,18.08C94.73,49.63,87.81,42.26,87.81,33.66Z"/><path class="cls-4" d="M104,33.66c0-7.12-6.46-12.77-6.74-13a.5.5,0,0,0-.65,0c-.27.24-6.73,5.89-6.73,13s6.46,12.77,6.73,13a.5.5,0,0,0,.33.12.49.49,0,0,0,.32-.12C97.52,46.43,104,40.78,104,33.66Zm-13.12,0c0-5.77,4.75-10.71,6.06-11.95C98.22,23,103,27.89,103,33.66s-4.76,10.71-6.06,12C95.61,44.37,90.86,39.44,90.86,33.66Z"/><path class="cls-5" d="M56.84,60.93a1,1,0,0,0,.94-.68c.15-.44,3.58-10.82-1.05-18.65s-15.37-9.86-15.82-9.94a1,1,0,0,0-1.13.67c-.14.43-3.57,10.81,1.06,18.65s15.36,9.85,15.82,9.93ZM55,42.61c3.44,5.83,1.81,13.58,1.13,16.14-2.57-.64-10.14-3-13.58-8.79s-1.82-13.57-1.13-16.13C44,34.47,51.57,36.79,55,42.61Z"/><path class="cls-6" d="M53.72,55.29h.09a.51.51,0,0,0,.47-.34c.09-.27,2.21-6.69-.65-11.54s-9.5-6.08-9.78-6.13a.49.49,0,0,0-.56.33c-.1.27-2.22,6.69.64,11.53S53.44,55.24,53.72,55.29Zm-.95-11.36c2.23,3.77,1.1,8.8.69,10.28C52,53.85,47,52.42,44.79,48.64s-1.09-8.79-.68-10.27C45.6,38.73,50.55,40.17,52.77,43.93Z"/><path class="cls-7" d="M155.11,31.66c-.46.08-11.2,2.1-15.83,9.94s-1.2,18.21-1.05,18.65a1,1,0,0,0,1,.68l.17,0c.46-.08,11.2-2.09,15.83-9.93s1.2-18.22,1-18.65A1,1,0,0,0,155.11,31.66ZM139.87,58.75c-.68-2.56-2.31-10.3,1.14-16.14s11-8.14,13.58-8.78c.68,2.56,2.31,10.3-1.13,16.13S142.45,58.11,139.87,58.75Z"/><path class="cls-8" d="M152.73,37.62a.5.5,0,0,0-.56-.33c-.29.05-6.93,1.29-9.79,6.13s-.74,11.27-.65,11.54a.52.52,0,0,0,.48.34h.09c.28,0,6.92-1.3,9.78-6.14S152.82,37.89,152.73,37.62ZM142.55,54.21c-.4-1.48-1.53-6.51.69-10.28s7.17-5.2,8.67-5.56c.41,1.48,1.54,6.5-.69,10.27S144.05,53.85,142.55,54.21Z"/></g></g></svg>