<svg xmlns="http://www.w3.org/2000/svg" xmlns:xlink="http://www.w3.org/1999/xlink" viewBox="0 0 191.15 142"><defs><style>.cls-1{fill:#1a1a1a;}.cls-2{fill:url(#linear-gradient);}.cls-3{fill:url(#linear-gradient-2);}.cls-4{fill:url(#linear-gradient-3);}</style><linearGradient id="linear-gradient" x1="31.3" y1="147.44" x2="159.85" y2="18.9" gradientUnits="userSpaceOnUse"><stop offset="0" stop-color="#eedebc"/><stop offset="0.06" stop-color="#ddc6a3"/><stop offset="0.14" stop-color="#c9a885"/><stop offset="0.26" stop-color="#9a7a5f"/><stop offset="0.36" stop-color="#c9a885"/><stop offset="0.49" stop-color="#eedebc"/><stop offset="0.54" stop-color="#ddc6a3"/><stop offset="0.61" stop-color="#c9a885"/><stop offset="0.72" stop-color="#9a7a5f"/><stop offset="0.84" stop-color="#c9a885"/><stop offset="1" stop-color="#eedebc"/></linearGradient><linearGradient id="linear-gradient-2" x1="86.94" y1="83.4" x2="104.6" y2="65.74" xlink:href="#linear-gradient"/><linearGradient id="linear-gradient-3" x1="85.22" y1="51" x2="105.93" y2="30.3" xlink:href="#linear-gradient"/></defs><title>Ativo 2</title><g id="Camada_2" data-name="Camada 2"><g id="Object"><path class="cls-1" d="M96.08,41.16c0,4.44.29,8.18,8.12,8.18h.06v-.05C104.26,41.45,100.52,41.17,96.08,41.16Z"/><path class="cls-1" d="M90.37,40.66c-2.58-.82-4.47-3-4.48-8.6-1,.14-1.66.47-1.86,1a2.84,2.84,0,0,0,.28,2,1,1,0,0,1,0,.1l.18.37.22.42,0,.06a22,22,0,0,0,3.34,4.26.49.49,0,0,1,.15.36h0a.49.49,0,0,1-.15.36c-1.92,1.92-4.74,5.58-4.1,7.23a1.05,1.05,0,0,0,.27.4l.06.06a1.68,1.68,0,0,0,.43.28l.07,0a2.94,2.94,0,0,0,.57.17l.16,0,.3,0C85.89,43.61,87.79,41.47,90.37,40.66Z"/><path class="cls-1" d="M96.08,40.15c4.44,0,8.18-.29,8.18-8.12V32h-.06C96.37,32,96.09,35.71,96.08,40.15Z"/><path class="cls-1" d="M95.07,41.16c-4.44,0-8.18.29-8.18,8.13v.05H87C94.78,49.34,95.06,45.6,95.07,41.16Z"/><path class="cls-1" d="M95.07,40.15c0-4.44-.29-8.18-8.12-8.18h-.06V32C86.89,39.86,90.63,40.14,95.07,40.15Z"/><path class="cls-1" d="M107.12,33.07c-.2-.54-.85-.87-1.86-1,0,5.64-1.9,7.78-4.48,8.6,2.58.81,4.48,3,4.48,8.61l.3,0,.16,0a2.94,2.94,0,0,0,.57-.17l.07,0a1.68,1.68,0,0,0,.43-.28l.06-.06a1.05,1.05,0,0,0,.27-.4c.64-1.65-2.18-5.31-4.1-7.23a.49.49,0,0,1-.15-.36h0a.49.49,0,0,1,.15-.36,22.23,22.23,0,0,0,3.33-4.25l.13-.23.14-.25A3.36,3.36,0,0,0,107.12,33.07Z"/><path class="cls-1" d="M103.16,29.11c-1.65-.63-5.31,2.19-7.23,4.11a.51.51,0,0,1-.71,0c-1.73-1.73-4.88-4.2-6.7-4.2a1.61,1.61,0,0,0-.54.09c-.54.21-.87.85-1,1.86,5.65,0,7.79,1.9,8.61,4.48.81-2.58,3-4.47,8.6-4.48C104,30,103.71,29.32,103.16,29.11Z"/><path class="cls-1" d="M167.67,78.79a1.48,1.48,0,0,0-.57.1c-.88.36-1.06,1.79-1.06,2.92,0,6,3.21,13.66,5,17.41a140.45,140.45,0,0,1,2.6-17C171.81,80.64,169.24,78.79,167.67,78.79Z"/><path class="cls-1" d="M24.82,78c1.11.46,1.68,1.75,1.68,3.84,0,7.63-5.15,15.79-6.33,17.57,0,.61.12,1.21.17,1.83a204.39,204.39,0,0,1,.15,30.94c2.1-1.23,7.54-2.7,21.68-4,8.35-.77,18.32-1.33,29.18-1.67-2.54-21.54-9.45-35.35-15.11-43.37-5.78-8.19-11.33-12-12.93-13L3.13,52c6.5,6.67,11.25,16.53,14.23,29.44C19.06,79.9,22.62,77.05,24.82,78Z"/><path class="cls-1" d="M25.5,81.81c0-1.13-.19-2.56-1.06-2.92-1.53-.63-4.82,1.77-6.83,3.68A137.35,137.35,0,0,1,20,97.75C21.77,94.87,25.5,88,25.5,81.81Z"/><path class="cls-1" d="M147.19,70.36l.07-.16c-3.67,2.36-23.22,16.67-27.89,56.27,11,.33,21.15.9,29.61,1.68,14.14,1.3,19.58,2.77,21.68,4a204.39,204.39,0,0,1,.15-30.94v-.06C169.42,98.38,165,89,165,81.81c0-2.09.56-3.38,1.68-3.84,2.06-.86,5.34,1.61,7.14,3.18,3-12.76,7.71-22.53,14.16-29.15l-40.6,18.3A1,1,0,0,1,147.19,70.36Z"/><path class="cls-1" d="M44.94,70a0,0,0,0,0,0,0c5.43,3.85,23,19,27.41,56.45,7.42-.22,15.23-.34,23.24-.34,7.84,0,15.5.11,22.77.32,2.57-21.83,9.59-35.83,15.34-44a50.45,50.45,0,0,1,12.37-12.69L95.58,2.07ZM95.77,86.21c-7.69,0-11.59-3.58-11.59-10.64,0-5,4.35-11,8-15a4.85,4.85,0,0,1,7.2,0c3.64,4.09,8,10,8,15C107.36,82.63,103.46,86.21,95.77,86.21Zm7.81-58c.92.38,1.46,1.33,1.62,2.83h0c1.5.16,2.46.7,2.84,1.62a3.18,3.18,0,0,1,0,2.17s0,0,0,0c-.06.17-.12.34-.19.52s-.07.15-.1.23l-.16.34c-.08.17-.17.33-.27.5,0,0,0,0,0,.06a22.42,22.42,0,0,1-3.18,4.15c1.26,1.32,5,5.53,4,8a2,2,0,0,1-.34.56l-.06.06a2.39,2.39,0,0,1-.54.45l-.1.05a3.43,3.43,0,0,1-.7.3l-.08,0a5.29,5.29,0,0,1-.88.17l-.13,0a.09.09,0,0,0,0,.05,4.68,4.68,0,0,1-.52,1.78l0,.05a2.3,2.3,0,0,1-.46.56l-.07.06a2.47,2.47,0,0,1-.54.34h-.06l-.16,0-.3.08h-.25l-.26,0-.34,0-.19,0-.48-.11-.07,0c-2.29-.68-4.91-3-5.89-4-1.17,1.1-4.58,4.14-7.07,4.14a2.49,2.49,0,0,1-.47,0l-.22-.06-.19-.05h-.06a2.47,2.47,0,0,1-.54-.34L87,52.73a2.51,2.51,0,0,1-.45-.56l0-.05A4.68,4.68,0,0,1,86,50.34a.09.09,0,0,0,0-.05l-.13,0a5.29,5.29,0,0,1-.88-.17l-.08,0a3.43,3.43,0,0,1-.7-.3l-.1-.05a2.39,2.39,0,0,1-.54-.45l-.06-.06a2.3,2.3,0,0,1-.35-.56c-1-2.47,2.72-6.68,4-8a22.83,22.83,0,0,1-3.19-4.15s0,0,0-.06c-.09-.17-.18-.33-.26-.5l-.16-.34c0-.08-.07-.16-.1-.23s-.13-.35-.19-.52c0,0,0,0,0,0a3.24,3.24,0,0,1,0-2.17c.39-.92,1.35-1.46,2.84-1.62h0c.16-1.5.7-2.45,1.62-2.83,2.47-1,6.69,2.72,8,4C96.89,30.91,101.11,27.17,103.58,28.19Z"/><path class="cls-1" d="M95.58,45.86c-.82,2.58-3,4.47-8.61,4.48,0,.12,0,.25,0,.36v0a2.52,2.52,0,0,0,.51,1.14.34.34,0,0,0,.06.06,1.05,1.05,0,0,0,.39.27l.11,0,.21,0h.37c1.83-.12,4.86-2.5,6.55-4.2a.51.51,0,0,1,.71,0,22.27,22.27,0,0,0,4.25,3.34l.08,0,.41.23.25.11.23.11.31.12.16.06.3.09.14,0a1.51,1.51,0,0,0,.28.05l.13,0h.37a.94.94,0,0,0,.24-.06l.09,0a1.18,1.18,0,0,0,.4-.27l.05-.06a2.52,2.52,0,0,0,.51-1.14v0c0-.11,0-.24,0-.36C98.53,50.33,96.39,48.44,95.58,45.86Z"/><path class="cls-1" d="M91.13,72.92A35.88,35.88,0,0,1,95.35,63a.5.5,0,0,1,.84,0,35.67,35.67,0,0,1,4.26,10.12H106c-1.14-4.42-5-9.22-7.39-12a3.83,3.83,0,0,0-5.7,0c-2.39,2.68-6.12,7.37-7.34,11.73Z"/><path class="cls-1" d="M106.22,74.14h-5.6a12.58,12.58,0,0,1,.14,1.71c0,6.25-2.72,7.56-5,7.56s-5-1.31-5-7.56A11.62,11.62,0,0,1,91,73.92h-5.6a8.56,8.56,0,0,0-.17,1.65c0,6.49,3.46,9.64,10.59,9.64s10.59-3.15,10.59-9.64A8.76,8.76,0,0,0,106.22,74.14Z"/><path class="cls-1" d="M99.49,73.4a33.87,33.87,0,0,0-3.72-9.14,34.71,34.71,0,0,0-3.68,8.93l3.69,2.53Z"/><path class="cls-1" d="M95.77,76.82a.47.47,0,0,1-.28-.09L91.9,74.27a10.81,10.81,0,0,0-.12,1.58c0,4.41,1.31,6.56,4,6.56s4-2.15,4-6.56a10.94,10.94,0,0,0-.1-1.38L96,76.74A.5.5,0,0,1,95.77,76.82Z"/><path class="cls-1" d="M95.58,128.11c-44.88,0-72.06,3.47-74.34,5.95C23.52,136.53,50.7,140,95.58,140s72.05-3.47,74.33-5.94C167.63,131.58,140.45,128.11,95.58,128.11Z"/><path class="cls-2" d="M189,49.38,147.33,68.15,96.83.4A1,1,0,0,0,96,0h-.91a1,1,0,0,0-.8.4L43.82,68.15,2.19,49.38a1.49,1.49,0,0,0-1.88.56,1.83,1.83,0,0,0,.24,2.33c23.53,22,17.85,81.09,17.79,81.69a1,1,0,0,0,.25.77,1,1,0,0,0,.74.33h.1c.89,1.34,4.86,3.26,22.74,4.9,14.27,1.32,33.23,2,53.41,2s39.13-.72,53.4-2c17.88-1.64,21.85-3.56,22.74-4.9h.1a1,1,0,0,0,.74-.33,1,1,0,0,0,.25-.77c-.06-.6-5.75-59.64,17.79-81.69a1.83,1.83,0,0,0,.24-2.33A1.49,1.49,0,0,0,189,49.38Zm-19.05,84.68c-2.28,2.47-29.46,5.94-74.33,5.94s-72.06-3.47-74.34-5.94c2.28-2.48,29.46-5.95,74.34-5.95S167.63,131.58,169.91,134.06ZM171,99.22c-1.75-3.75-5-11.45-5-17.41,0-1.13.18-2.56,1.06-2.92a1.48,1.48,0,0,1,.57-.1c1.57,0,4.14,1.85,5.93,3.48A140.45,140.45,0,0,0,171,99.22ZM133.69,82.47c-5.75,8.13-12.77,22.13-15.34,44-7.27-.21-14.93-.32-22.77-.32-8,0-15.82.12-23.24.34C68,89,50.36,73.85,44.93,70a0,0,0,0,1,0,0L95.58,2.07l50.48,67.71A50.45,50.45,0,0,0,133.69,82.47ZM43.31,70.11c1.6,1,7.15,4.81,12.93,13,5.66,8,12.57,21.83,15.11,43.37-10.86.34-20.83.9-29.18,1.67-14.14,1.3-19.58,2.77-21.68,4a204.39,204.39,0,0,0-.15-30.94c-.05-.62-.12-1.22-.17-1.83,1.18-1.78,6.33-9.94,6.33-17.57,0-2.09-.57-3.38-1.68-3.84-2.2-.92-5.76,1.93-7.46,3.47C14.38,68.53,9.63,58.67,3.13,52ZM17.61,82.57c2-1.91,5.3-4.31,6.83-3.68.87.36,1.06,1.79,1.06,2.92C25.5,88,21.77,94.87,20,97.75A137.35,137.35,0,0,0,17.61,82.57Zm156.25-1.42c-1.8-1.57-5.08-4-7.14-3.18-1.12.46-1.68,1.75-1.68,3.84,0,7.23,4.38,16.57,5.77,19.34v.06a204.39,204.39,0,0,0-.15,30.94c-2.1-1.23-7.54-2.7-21.68-4-8.46-.78-18.58-1.35-29.61-1.68,4.67-39.6,24.22-53.91,27.89-56.27l-.07.16a1,1,0,0,0,.23-.06L188,52C181.57,58.62,176.84,68.39,173.86,81.15Z"/><path class="cls-3" d="M95.77,58.92a4.82,4.82,0,0,0-3.6,1.6c-3.64,4.09-8,10-8,15,0,7.06,3.9,10.64,11.59,10.64s11.59-3.58,11.59-10.64c0-5-4.35-11-8-15A4.85,4.85,0,0,0,95.77,58.92Zm0,26.29c-7.13,0-10.59-3.15-10.59-9.64a8.56,8.56,0,0,1,.17-1.65H91a11.62,11.62,0,0,0-.17,1.93c0,6.25,2.71,7.56,5,7.56s5-1.31,5-7.56a12.58,12.58,0,0,0-.14-1.71h5.6a8.76,8.76,0,0,1,.14,1.43C106.36,82.06,102.89,85.21,95.77,85.21Zm0-25.29a3.81,3.81,0,0,1,2.85,1.27c2.43,2.73,6.25,7.53,7.39,12h-5.56A35.67,35.67,0,0,0,96.19,63a.5.5,0,0,0-.84,0,35.88,35.88,0,0,0-4.22,9.9H85.58c1.22-4.36,5-9.05,7.34-11.73A3.81,3.81,0,0,1,95.77,59.92Zm4,15.93c0,4.41-1.31,6.56-4,6.56s-4-2.15-4-6.56a10.81,10.81,0,0,1,.12-1.58l3.59,2.46a.47.47,0,0,0,.28.09.5.5,0,0,0,.26-.08l3.63-2.27A10.94,10.94,0,0,1,99.76,75.85Zm-7.67-2.66a34.71,34.71,0,0,1,3.68-8.93,33.87,33.87,0,0,1,3.72,9.14l-3.71,2.32Z"/><path class="cls-4" d="M87.57,28.19c-.92.38-1.46,1.33-1.62,2.83h0c-1.49.16-2.45.7-2.84,1.62a3.24,3.24,0,0,0,0,2.17s0,0,0,0c.06.17.12.34.19.52s.07.15.1.23l.16.34c.08.17.17.33.26.5,0,0,0,0,0,.06a22.83,22.83,0,0,0,3.19,4.15c-1.26,1.32-5,5.53-4,8a2.3,2.3,0,0,0,.35.56l.06.06a2.39,2.39,0,0,0,.54.45l.1.05a3.43,3.43,0,0,0,.7.3l.08,0a5.29,5.29,0,0,0,.88.17l.13,0a.09.09,0,0,1,0,.05,4.68,4.68,0,0,0,.52,1.78l0,.05a2.51,2.51,0,0,0,.45.56l.08.06a2.47,2.47,0,0,0,.54.34h.06l.19.05.22.06a2.49,2.49,0,0,0,.47,0c2.49,0,5.9-3,7.07-4.14,1,.94,3.6,3.27,5.89,4l.07,0,.48.11.19,0,.34,0,.26,0h.25l.3-.08.16,0h.06a2.47,2.47,0,0,0,.54-.34l.07-.06a2.3,2.3,0,0,0,.46-.56l0-.05a4.68,4.68,0,0,0,.52-1.78.09.09,0,0,1,0-.05l.13,0a5.29,5.29,0,0,0,.88-.17l.08,0a3.43,3.43,0,0,0,.7-.3l.1-.05a2.39,2.39,0,0,0,.54-.45l.06-.06a2,2,0,0,0,.34-.56c1-2.47-2.71-6.68-4-8a22.42,22.42,0,0,0,3.18-4.15s0,0,0-.06c.1-.17.19-.33.27-.5l.16-.34c0-.08.07-.16.1-.23s.13-.35.19-.52c0,0,0,0,0,0a3.18,3.18,0,0,0,0-2.17c-.38-.92-1.34-1.46-2.84-1.62h0c-.16-1.5-.7-2.45-1.62-2.83-2.47-1-6.69,2.72-8,4C94.26,30.91,90,27.16,87.57,28.19Zm18.91,7.63-.13.23A22.23,22.23,0,0,1,103,40.3a.49.49,0,0,0-.15.36h0A.49.49,0,0,0,103,41c1.92,1.92,4.74,5.58,4.1,7.23a1.05,1.05,0,0,1-.27.4l-.06.06a1.68,1.68,0,0,1-.43.28l-.07,0a2.94,2.94,0,0,1-.57.17l-.16,0-.3,0c0-5.66-1.9-7.8-4.48-8.61,2.58-.82,4.47-3,4.48-8.6,1,.14,1.66.47,1.86,1a3.36,3.36,0,0,1-.5,2.5Zm-2.35,14.92a2.52,2.52,0,0,1-.51,1.14l-.05.06a1.18,1.18,0,0,1-.4.27l-.09,0a.94.94,0,0,1-.24.06h-.37l-.13,0a1.51,1.51,0,0,1-.28-.05l-.14,0-.3-.09-.16-.06-.31-.12-.23-.11-.25-.11-.41-.23-.08,0a22.27,22.27,0,0,1-4.25-3.34.51.51,0,0,0-.71,0c-1.69,1.7-4.72,4.08-6.55,4.2H88.3l-.21,0-.11,0a1.05,1.05,0,0,1-.39-.27.34.34,0,0,1-.06-.06A2.52,2.52,0,0,1,87,50.74v0c0-.11,0-.24,0-.36,5.65,0,7.79-1.9,8.61-4.48.81,2.58,3,4.47,8.6,4.48,0,.12,0,.25,0,.36Zm-18.7-1.55a2.94,2.94,0,0,1-.57-.17l-.07,0a1.68,1.68,0,0,1-.43-.28l-.06-.06a1.05,1.05,0,0,1-.27-.4c-.64-1.65,2.18-5.31,4.1-7.23a.49.49,0,0,0,.15-.36h0a.49.49,0,0,0-.15-.36A22,22,0,0,1,84.79,36l0-.06-.22-.42-.18-.37a1,1,0,0,0,0-.1,2.84,2.84,0,0,1-.28-2c.2-.54.85-.87,1.86-1,0,5.64,1.9,7.78,4.48,8.6-2.58.81-4.48,3-4.48,8.61l-.3,0ZM104.26,32c0,7.83-3.74,8.11-8.18,8.12,0-4.44.29-8.18,8.12-8.18h.06Zm0,17.31h-.06c-7.83,0-8.11-3.74-8.12-8.18,4.44,0,8.18.29,8.18,8.13Zm-17.37,0v-.05c0-7.84,3.74-8.12,8.18-8.13,0,4.44-.29,8.18-8.12,8.18Zm0-17.37H87c7.83,0,8.11,3.74,8.12,8.18-4.44,0-8.18-.29-8.18-8.12Zm8.69,3.48C94.76,32.87,92.62,31,87,31c.14-1,.47-1.65,1-1.86a1.61,1.61,0,0,1,.54-.09c1.82,0,5,2.47,6.7,4.2a.51.51,0,0,0,.71,0c1.92-1.92,5.58-4.74,7.23-4.11.55.21.88.85,1,1.86C98.53,31,96.39,32.87,95.58,35.45Z"/></g></g></svg>