<svg xmlns="http://www.w3.org/2000/svg" xmlns:xlink="http://www.w3.org/1999/xlink" viewBox="0 0 184.19 142"><defs><style>.cls-1{fill:#1a1a1a;}.cls-2{fill:url(#linear-gradient);}.cls-3{fill:url(#linear-gradient-2);}.cls-4{fill:url(#linear-gradient-3);}</style><linearGradient id="linear-gradient" x1="50.38" y1="111.2" x2="59.61" y2="101.97" gradientUnits="userSpaceOnUse"><stop offset="0" stop-color="#eedebc"/><stop offset="0.06" stop-color="#ddc6a3"/><stop offset="0.14" stop-color="#c9a885"/><stop offset="0.26" stop-color="#9a7a5f"/><stop offset="0.36" stop-color="#c9a885"/><stop offset="0.49" stop-color="#eedebc"/><stop offset="0.54" stop-color="#ddc6a3"/><stop offset="0.61" stop-color="#c9a885"/><stop offset="0.72" stop-color="#9a7a5f"/><stop offset="0.84" stop-color="#c9a885"/><stop offset="1" stop-color="#eedebc"/></linearGradient><linearGradient id="linear-gradient-2" x1="125.87" y1="111.2" x2="135.1" y2="101.97" xlink:href="#linear-gradient"/><linearGradient id="linear-gradient-3" x1="28.7" y1="164.3" x2="155.75" y2="37.24" xlink:href="#linear-gradient"/></defs><title>Ativo 4</title><g id="Camada_2" data-name="Camada 2"><g id="Object"><path class="cls-1" d="M51.55,84.07a11.35,11.35,0,0,0,3.05-.19,9.19,9.19,0,0,0,1.26-.29V58.94s0,.05-.06.08c-2.12,6-6.26,14.66-13.59,20.75A19.68,19.68,0,0,0,51.55,84.07Z"/><path class="cls-1" d="M56.86,58.55V83.27c3.6-1.29,6.86-4.19,9.81-8.14a52.76,52.76,0,0,1-9-16.11A1,1,0,0,0,56.86,58.55Z"/><path class="cls-1" d="M120.27,77.9V58.45l-.5-.24a.6.6,0,0,0-.14.21,57.27,57.27,0,0,1-5.29,11A46.26,46.26,0,0,0,120.27,77.9Z"/><path class="cls-1" d="M121.27,78.94a16.46,16.46,0,0,0,8.79,4.94,11.84,11.84,0,0,0,3.06.19,18.94,18.94,0,0,0,6-2.07c-9.89-5.91-15.1-16.61-17.58-23.58,0,0,0-.05,0-.07l-.23.1Z"/><path class="cls-1" d="M159.44,62.5c-.5.26-.84.42-1,.49v66.79c15.35,1.1,21.38,2.29,23.74,3.35V120.27c-2-1-6.21-3.64-6.21-6.84s4.24-5.8,6.21-6.84v-20a.56.56,0,0,0-.49-.57C169.34,84,162.73,71.8,159.44,62.5Z"/><path class="cls-1" d="M28.92,62.39c-.6.32-1,.52-1.19.6v66.62c17.11-1.14,39.79-1.77,63.92-1.77V32.69c-.23-.13-2.31-1.31-5-3.08-5.64,22.18-15.2,53.54-31.76,56.25a14,14,0,0,1-3.71.19C38.81,84,32.2,71.7,28.92,62.39ZM54.79,99.28a.49.49,0,0,1,.41,0c.29.13,7.14,3.24,7.14,7.3s-6.85,7.18-7.14,7.3a.46.46,0,0,1-.2.05.54.54,0,0,1-.21-.05c-.29-.12-7.14-3.24-7.14-7.3S54.5,99.41,54.79,99.28Z"/><path class="cls-1" d="M97.94,29.49c-2.79,1.82-5,3.05-5.29,3.21v95.14c24,0,46.53.64,63.53,1.78l1.27.09V63c-.21-.1-.8-.38-1.63-.83C152.57,71.5,146,84,133.44,86.05a14,14,0,0,1-3.71-.19C113.14,83.15,103.57,51.67,97.94,29.49Zm32.34,69.79a.49.49,0,0,1,.41,0c.29.13,7.14,3.24,7.14,7.3s-6.85,7.18-7.14,7.3a.49.49,0,0,1-.2.05.54.54,0,0,1-.21-.05c-.29-.12-7.14-3.24-7.14-7.3S130,99.41,130.28,99.28Z"/><path class="cls-1" d="M26.73,129.68V63c-.19-.09-.71-.33-1.43-.72C22,71.59,15.43,84,3,86.05a.56.56,0,0,0-.49.57v19.9c1.91,1,6.34,3.64,6.34,6.91s-4.43,5.92-6.34,6.91v12.43C5.46,131.78,12.08,130.68,26.73,129.68Z"/><path class="cls-1" d="M91.83,30.48V25c-1.62-.77-9.48-4.76-9.48-9.79,0-4.72,6.89-8.52,9.1-9.62A11.59,11.59,0,0,0,83.4,2,8.25,8.25,0,0,0,79,3.23a8.86,8.86,0,0,0-4,6.46,13.12,13.12,0,0,0,2,8.67C80,23.22,89.08,28.85,91.83,30.48Z"/><path class="cls-1" d="M102.31,15.25c0,5-7.86,9-9.48,9.79v5.25C96,28.44,104.75,23,107.66,18.36a13.12,13.12,0,0,0,2-8.67,8.83,8.83,0,0,0-4-6.46h0c-3.69-2.3-8.78-1.3-12.46,2.4C95.42,6.73,102.31,10.53,102.31,15.25Z"/><path class="cls-1" d="M83.35,15.25c0,4.05,6.34,7.6,8.48,8.68V6.57C89.69,7.65,83.35,11.19,83.35,15.25Z"/><path class="cls-1" d="M101.31,15.25c0-4.06-6.34-7.61-8.48-8.68V23.93C95,22.85,101.31,19.3,101.31,15.25Z"/><path class="cls-1" d="M55,112.88c1.11-.54,6.34-3.23,6.34-6.3s-5.23-5.76-6.34-6.29c-1.11.53-6.35,3.22-6.35,6.29S53.89,112.34,55,112.88Z"/><path class="cls-1" d="M7.81,113.43c0-2.67-4-5.07-5.71-6V119.4C3.82,118.49,7.81,116.1,7.81,113.43Z"/><path class="cls-1" d="M177,113.43c0,2.67,4,5.06,5.71,6V107.46C181,108.36,177,110.76,177,113.43Z"/><path class="cls-1" d="M130.49,112.88c1.11-.54,6.34-3.23,6.34-6.3s-5.23-5.76-6.34-6.29c-1.11.53-6.35,3.22-6.35,6.29S129.38,112.34,130.49,112.88Z"/><path class="cls-1" d="M18.75,52.64c0,3.57,5.77,7.08,8.48,8.38,2.7-1.3,8.48-4.82,8.48-8.38s-5.78-7.08-8.48-8.38C24.52,45.56,18.75,49.08,18.75,52.64Z"/><path class="cls-1" d="M149.47,52.64c0,3.57,5.77,7.08,8.48,8.38,2.7-1.3,8.48-4.82,8.48-8.38s-5.78-7.08-8.48-8.38C155.24,45.56,149.47,49.08,149.47,52.64Z"/><path class="cls-1" d="M47.88,48.1c0,3.57,5.77,7.08,8.48,8.38,2.7-1.3,8.48-4.82,8.48-8.38S59.06,41,56.36,39.72C53.65,41,47.88,44.54,47.88,48.1Z"/><path class="cls-1" d="M112.29,48.1c0,3.57,5.78,7.08,8.48,8.38,2.71-1.3,8.48-4.82,8.48-8.38s-5.77-7.08-8.48-8.38C118.07,41,112.29,44.54,112.29,48.1Z"/><path class="cls-1" d="M181.38,134.92c-4.45-2.22-36.4-5.08-89.52-5.08S6.8,132.7,2.34,134.92C6.8,137.14,38.74,140,91.86,140S176.93,137.14,181.38,134.92Z"/><path class="cls-2" d="M54.79,113.88a.54.54,0,0,0,.21.05.46.46,0,0,0,.2-.05c.29-.12,7.14-3.24,7.14-7.3s-6.85-7.17-7.14-7.3a.49.49,0,0,0-.41,0c-.29.13-7.14,3.24-7.14,7.3S54.5,113.76,54.79,113.88ZM55,100.29c1.11.53,6.34,3.22,6.34,6.29s-5.23,5.76-6.34,6.3c-1.11-.54-6.35-3.23-6.35-6.3S53.89,100.82,55,100.29Z"/><path class="cls-3" d="M130.28,113.88a.54.54,0,0,0,.21.05.49.49,0,0,0,.2-.05c.29-.12,7.14-3.24,7.14-7.3s-6.85-7.17-7.14-7.3a.49.49,0,0,0-.41,0c-.29.13-7.14,3.24-7.14,7.3S130,113.76,130.28,113.88Zm.21-13.59c1.11.53,6.34,3.22,6.34,6.29s-5.23,5.76-6.34,6.3c-1.11-.54-6.35-3.23-6.35-6.3S129.38,100.82,130.49,100.29Z"/><path class="cls-4" d="M0,134.92c0,1.29,0,3.45,27.55,5.3,17.18,1.15,40,1.78,64.31,1.78s47.14-.63,64.32-1.78c27.55-1.85,27.55-4,27.55-5.3v-.11a2.6,2.6,0,0,0,.46-1.48V86.62A2.58,2.58,0,0,0,182,84.07c-11.53-1.88-17.74-13.7-20.82-22.56,3-1.8,7.22-5,7.22-8.87,0-5.82-9.66-10.21-10.07-10.39a1,1,0,0,0-.82,0c-.41.18-10.07,4.57-10.07,10.39,0,3.59,3.68,6.63,6.59,8.48-2.25,6.62-6.27,15-13,19.68-10-5.47-15.2-16.17-17.65-23a3.49,3.49,0,0,0-.15-.34c3-1.66,8-5.11,8-9.31,0-5.82-9.66-10.21-10.07-10.39a1,1,0,0,0-.81,0c-.42.18-10.08,4.57-10.08,10.39,0,4.07,4.72,7.43,7.7,9.15a3.89,3.89,0,0,0-.25.5,55.17,55.17,0,0,1-4.5,9.69C107.14,55.8,102.73,40.25,99.7,28.3c3.65-2.52,7.73-5.79,9.66-8.88a15.11,15.11,0,0,0,2.26-10,10.81,10.81,0,0,0-4.9-7.88h0C102.42-1.15,96.63-.24,92.33,3.7,88-.24,82.24-1.15,77.94,1.53A10.81,10.81,0,0,0,73,9.41a15.16,15.16,0,0,0,2.26,10c2,3.13,6,6.45,9.63,9-3.59,14.15-9.11,33.29-17.06,45A51.44,51.44,0,0,1,59.6,58.35a2.43,2.43,0,0,0-.66-1c3-1.68,7.9-5.1,7.9-9.26,0-5.82-9.66-10.21-10.08-10.39a1,1,0,0,0-.81,0c-.41.18-10.07,4.57-10.07,10.39,0,4.42,5.56,8,8.42,9.56a2.58,2.58,0,0,0-.38.69c-2.06,5.79-6.09,14.26-13.23,20.07-4.93-4.73-8.08-11.47-10-17,3-1.82,7-5,7-8.75,0-5.82-9.66-10.21-10.07-10.39a1,1,0,0,0-.82,0c-.41.18-10.07,4.57-10.07,10.39,0,3.67,3.84,6.77,6.79,8.61-3.05,8.89-9.26,20.92-20.91,22.82A2.58,2.58,0,0,0,.47,86.62v46.71a2.85,2.85,0,0,0,0,.41A1.36,1.36,0,0,0,0,134.92ZM2.1,119.4V107.46c1.72.9,5.71,3.3,5.71,6S3.82,118.49,2.1,119.4Zm.37.94c1.91-1,6.34-3.64,6.34-6.91s-4.43-5.92-6.34-6.91V86.62A.56.56,0,0,1,3,86.05C15.43,84,22,71.59,25.3,62.27c.72.39,1.24.63,1.43.72v66.69c-14.65,1-21.27,2.1-24.26,3.09Zm33.24-67.7c0,3.56-5.78,7.08-8.48,8.38-2.71-1.3-8.48-4.81-8.48-8.38s5.77-7.08,8.48-8.38C29.93,45.56,35.71,49.08,35.71,52.64ZM55.8,59s0-.05.06-.08V83.59a9.19,9.19,0,0,1-1.26.29,11.35,11.35,0,0,1-3.05.19,19.68,19.68,0,0,1-9.34-4.3C49.54,73.68,53.68,65,55.8,59Zm9-10.92c0,3.56-5.78,7.08-8.48,8.38-2.71-1.3-8.48-4.81-8.48-8.38s5.77-7.08,8.48-8.38C59.06,41,64.84,44.54,64.84,48.1Zm1.83,27c-3,4-6.21,6.85-9.81,8.14V58.55a1,1,0,0,1,.86.47A52.76,52.76,0,0,0,66.67,75.13ZM51.22,86.05a14,14,0,0,0,3.71-.19c16.56-2.71,26.12-34.07,31.76-56.25,2.65,1.77,4.73,3,5,3.08v95.15c-24.13,0-46.81.63-63.92,1.77V63c.17-.08.59-.28,1.19-.6C32.2,71.7,38.81,84,51.22,86.05ZM75,9.69a8.86,8.86,0,0,1,4-6.46A8.25,8.25,0,0,1,83.4,2a11.59,11.59,0,0,1,8,3.63c-2.21,1.1-9.1,4.9-9.1,9.62,0,5,7.86,9,9.48,9.79v5.44C89.08,28.85,80,23.22,77,18.36A13.12,13.12,0,0,1,75,9.69Zm30.65-6.46h0a8.83,8.83,0,0,1,4,6.46,13.12,13.12,0,0,1-2,8.67C104.75,23,96,28.44,92.83,30.29V25c1.62-.77,9.48-4.76,9.48-9.79,0-4.72-6.89-8.52-9.1-9.62C96.89,1.93,102,.93,105.67,3.23ZM129.25,48.1c0,3.56-5.77,7.08-8.48,8.38-2.7-1.3-8.48-4.81-8.48-8.38s5.78-7.08,8.48-8.38C123.48,41,129.25,44.53,129.25,48.1Zm-7.7,10.32c2.48,7,7.69,17.67,17.58,23.58a18.94,18.94,0,0,1-6,2.07,11.84,11.84,0,0,1-3.06-.19,16.46,16.46,0,0,1-8.79-4.94V58.45l.23-.1S121.54,58.39,121.55,58.42Zm-1.78-.21.5.24V77.9a46.26,46.26,0,0,1-5.93-8.43,57.27,57.27,0,0,0,5.29-11A.6.6,0,0,1,119.77,58.21Zm10,27.65a14,14,0,0,0,3.71.19C146,84,152.57,71.5,155.82,62.16c.83.45,1.42.73,1.63.83v66.72l-1.27-.09c-17-1.14-39.53-1.77-63.53-1.78V32.7c.28-.16,2.5-1.39,5.29-3.21C103.57,51.67,113.14,83.15,129.73,85.86Zm36.7-33.22c0,3.56-5.78,7.08-8.48,8.38-2.71-1.3-8.48-4.81-8.48-8.38s5.77-7.08,8.48-8.38C160.65,45.56,166.43,49.07,166.43,52.64Zm15.76,34v20c-2,1-6.21,3.64-6.21,6.84s4.24,5.8,6.21,6.84v12.86c-2.36-1.06-8.39-2.25-23.74-3.35V63c.15-.07.49-.23,1-.49,3.29,9.3,9.9,21.53,22.26,23.55A.56.56,0,0,1,182.19,86.62ZM2.34,134.92c4.46-2.22,36.41-5.08,89.52-5.08s85.07,2.86,89.52,5.08C176.93,137.14,145,140,91.86,140S6.8,137.14,2.34,134.92Zm180.35-27.46V119.4c-1.72-.91-5.71-3.3-5.71-6S181,108.36,182.69,107.46ZM91.83,23.93c-2.14-1.08-8.48-4.63-8.48-8.68s6.34-7.6,8.48-8.68Zm1-17.36c2.14,1.07,8.48,4.62,8.48,8.68s-6.34,7.6-8.48,8.68Z"/></g></g></svg>